<svg xmlns="http://www.w3.org/2000/svg" xmlns:xlink="http://www.w3.org/1999/xlink" width="2000" zoomAndPan="magnify" viewBox="0 0 1500 449.999984" height="600" preserveAspectRatio="xMidYMid meet" version="1.0"><defs><g/><clipPath id="7488e9533f"><path d="M 429 403 L 430.539062 403 L 430.539062 404.761719 L 429 404.761719 Z M 429 403 " clip-rule="nonzero"/></clipPath></defs><path fill="#5e46d5" d="M 81.28125 60.621094 C 74.84375 62.054688 69.785156 65.550781 66.410156 70.851562 C 62.535156 76.96875 62.535156 76.59375 62.535156 120.078125 L 62.535156 159.570312 L 85.65625 159.570312 L 85.65625 122.261719 C 85.65625 86.824219 85.714844 84.828125 86.777344 83.890625 C 87.839844 82.957031 91.652344 82.832031 128.328125 82.832031 L 168.75 82.832031 L 168.75 59.746094 L 126.765625 59.808594 C 96.089844 59.808594 83.78125 60.058594 81.28125 60.621094 Z M 81.28125 60.621094 " fill-opacity="1" fill-rule="nonzero"/><path fill="#5e46d5" d="M 314.953125 71.289062 L 314.953125 82.832031 L 355.4375 82.832031 C 393.925781 82.832031 396.050781 82.894531 396.988281 83.953125 C 397.925781 85.015625 398.050781 88.570312 398.050781 122.324219 L 398.050781 159.570312 L 421.230469 159.570312 L 421.042969 118.769531 L 420.855469 78.027344 L 418.355469 73.097656 C 415.480469 67.421875 411.546875 63.867188 405.734375 61.558594 L 402.109375 60.058594 L 358.5625 59.871094 L 314.953125 59.683594 Z M 314.953125 71.289062 " fill-opacity="1" fill-rule="nonzero"/><path fill="#5e46d5" d="M 226.230469 94.746094 C 189.433594 99.113281 156.378906 120.015625 137.136719 150.960938 C 128.078125 165.496094 119.957031 187.582031 120.019531 197.503906 C 120.082031 207.546875 130.078125 212.039062 137.449219 205.363281 C 140.324219 202.804688 140.699219 201.996094 143.074219 192.636719 C 152.570312 155.640625 182.996094 126.316406 220.171875 118.269531 C 228.980469 116.398438 252.035156 116.210938 261.53125 118.019531 C 300.332031 125.257812 332.132812 155.703125 341.320312 194.507812 C 342.382812 199 342.632812 203.054688 343.003906 221.023438 C 343.441406 240.363281 343.628906 242.546875 344.816406 245.917969 C 347.441406 253.089844 351.191406 256.023438 357 255.460938 C 360.5625 255.152344 362.9375 253.589844 364.4375 250.597656 C 365.4375 248.722656 365.5625 246.355469 365.5625 229.757812 C 365.5625 207.984375 364.6875 198.375 361.5 186.023438 C 349.503906 139.230469 311.765625 104.417969 263.40625 95.558594 C 256.847656 94.375 233.667969 93.8125 226.230469 94.746094 Z M 226.230469 94.746094 " fill-opacity="1" fill-rule="nonzero"/><path fill="#5e46d5" d="M 227.792969 138.046875 C 210.800781 141.039062 197.742188 147.652344 185.433594 159.507812 C 176.6875 167.929688 170.5 176.914062 166.003906 187.769531 C 163.941406 192.761719 162.378906 198.3125 159.691406 210.355469 C 156.253906 225.703125 143.449219 238.617188 126.390625 243.796875 C 119.207031 245.980469 116.269531 249.285156 116.269531 255.152344 C 116.332031 261.390625 120.582031 265.882812 126.328125 265.820312 C 135.261719 265.695312 152.320312 256.898438 162.503906 247.101562 C 173.8125 236.308594 179.558594 225.828125 182.558594 210.355469 C 186.683594 188.894531 197.117188 174.480469 214.671875 165.746094 C 224.421875 160.941406 228.917969 159.945312 241.226562 160.007812 C 250.347656 160.007812 252.222656 160.195312 257.660156 161.628906 C 271.09375 165.183594 283.277344 173.546875 290.460938 184.027344 C 293.585938 188.582031 297.269531 196.753906 298.769531 202.308594 C 299.894531 206.488281 300.207031 209.980469 300.582031 224.144531 C 301.144531 242.859375 302.144531 249.847656 305.644531 258.644531 C 312.953125 277.171875 328.074219 291.585938 346.503906 297.511719 C 353.128906 299.632812 357.4375 298.636719 360.8125 294.144531 C 362.5625 291.773438 362.9375 285.847656 361.5 282.851562 C 360.1875 280.167969 358.125 278.796875 351.316406 276.300781 C 338.132812 271.496094 328.699219 261.453125 324.949219 248.164062 C 323.386719 242.609375 322.511719 231.378906 322.511719 218.527344 C 322.511719 212.726562 322.199219 207.109375 321.574219 203.804688 C 315.828125 171.859375 290.523438 145.65625 258.722656 138.667969 C 252.160156 137.234375 234.355469 136.859375 227.792969 138.046875 Z M 227.792969 138.046875 " fill-opacity="1" fill-rule="nonzero"/><path fill="#5e46d5" d="M 236.480469 180.160156 C 227.667969 181.40625 218.171875 186.148438 212.925781 192.011719 C 207.050781 198.625 203.988281 205.613281 201.929688 217.21875 C 201.179688 221.273438 199.992188 226.328125 199.304688 228.449219 C 189.871094 256.460938 163.878906 278.796875 131.390625 286.84375 C 127.890625 287.71875 124.015625 291.273438 123.015625 294.457031 C 121.640625 299.074219 124.265625 304.75 128.890625 307.183594 C 131.203125 308.367188 134.886719 308.304688 140.636719 306.808594 C 177.0625 297.511719 208.925781 269.3125 219.984375 236.558594 C 221.046875 233.5 222.609375 227.261719 223.484375 222.582031 C 225.484375 211.976562 227.542969 207.796875 232.167969 204.738281 C 239.289062 200 248.601562 200.621094 253.847656 206.175781 C 257.597656 210.105469 258.285156 212.976562 258.847656 226.949219 C 259.847656 253.464844 262.96875 268.003906 271.15625 284.660156 C 282.964844 308.617188 301.144531 325.027344 326.136719 334.261719 C 332.257812 336.507812 335.632812 336.628906 338.945312 334.695312 C 342.320312 332.824219 343.816406 330.515625 344.191406 326.898438 C 344.816406 320.285156 342.445312 317.351562 333.820312 314.046875 C 313.015625 306.058594 299.332031 293.582031 290.335938 274.304688 C 283.777344 260.203125 281.402344 248.660156 280.589844 226.636719 C 280.214844 216.46875 279.714844 210.480469 279.027344 207.984375 C 276.339844 198.0625 268.21875 188.082031 259.347656 183.777344 C 256.785156 182.59375 253.410156 181.28125 251.847656 180.90625 C 247.539062 179.910156 240.726562 179.597656 236.480469 180.160156 Z M 236.480469 180.160156 " fill-opacity="1" fill-rule="nonzero"/><path fill="#5e46d5" d="M 235.917969 241.675781 C 232.667969 243.359375 231.855469 244.480469 226.855469 254.714844 C 221.421875 265.882812 218.671875 270.375 212.488281 278.109375 C 204.613281 287.96875 193.492188 297.574219 180.308594 305.871094 C 173.8125 309.992188 159.003906 317.289062 153.132812 319.347656 C 145.445312 321.96875 142.761719 325.339844 143.261719 331.640625 C 143.574219 335.320312 144.945312 337.503906 148.195312 339.75 C 151.382812 341.933594 156.441406 341.371094 165.691406 337.816406 C 195.554688 326.335938 220.984375 305.808594 238.351562 279.234375 C 242.414062 272.992188 248.789062 260.515625 250.285156 255.835938 C 252.097656 250.222656 250.410156 244.542969 246.101562 241.925781 C 243.601562 240.425781 238.601562 240.300781 235.917969 241.675781 Z M 235.917969 241.675781 " fill-opacity="1" fill-rule="nonzero"/><path fill="#5e46d5" d="M 62.660156 334.074219 L 62.847656 375.125 L 64.535156 378.679688 C 68.035156 386.167969 75.09375 391.222656 83.53125 392.34375 C 85.902344 392.59375 106.023438 392.84375 128.328125 392.90625 L 168.75 392.90625 L 168.75 369.820312 L 128.265625 369.820312 C 89.777344 369.820312 87.652344 369.757812 86.714844 368.699219 C 85.777344 367.636719 85.65625 364.082031 85.65625 330.328125 L 85.65625 293.082031 L 62.472656 293.082031 Z M 62.660156 334.074219 " fill-opacity="1" fill-rule="nonzero"/><path fill="#5e46d5" d="M 398.050781 330.390625 C 398.050781 365.828125 397.988281 367.824219 396.925781 368.761719 C 395.863281 369.695312 392.050781 369.820312 355.375 369.820312 L 314.953125 369.820312 L 314.953125 392.90625 L 355.4375 392.90625 C 378.679688 392.90625 397.738281 392.59375 400.238281 392.28125 C 408.921875 391.035156 415.605469 386.230469 419.230469 378.554688 L 420.855469 375.125 L 421.042969 334.074219 L 421.230469 293.082031 L 398.050781 293.082031 Z M 398.050781 330.390625 " fill-opacity="1" fill-rule="nonzero"/><path fill="#5e46d5" d="M 248.726562 297.886719 C 244.289062 298.636719 242.476562 299.757812 236.542969 305.5 C 214.546875 326.710938 204.238281 334.820312 188.433594 343.367188 C 185.308594 345.054688 181.808594 347.300781 180.558594 348.421875 C 173.4375 354.847656 178.25 366.703125 187.933594 366.703125 C 192.804688 366.703125 210.988281 356.40625 223.734375 346.488281 C 229.730469 341.871094 240.289062 332.511719 245.226562 327.523438 L 249.535156 323.15625 L 251.597656 325.648438 C 264.53125 340.996094 279.464844 353.726562 292.773438 360.527344 C 298.457031 363.394531 299.332031 363.707031 302.332031 363.457031 C 308.015625 362.957031 311.828125 358.902344 311.828125 353.351562 C 311.828125 348.046875 310.515625 346.425781 302.082031 341.246094 C 287.773438 332.449219 279.402344 324.964844 267.09375 309.929688 C 258.535156 299.445312 254.535156 296.828125 248.726562 297.886719 Z M 248.726562 297.886719 " fill-opacity="1" fill-rule="nonzero"/><path fill="#5e46d5" d="M 241.789062 353.226562 C 239.101562 354.160156 224.359375 365.953125 222.296875 368.761719 C 221.296875 370.195312 220.921875 371.632812 220.921875 374 C 220.921875 376.746094 221.234375 377.558594 222.796875 379.242188 C 225.296875 381.863281 228.167969 382.984375 232.230469 382.984375 C 235.980469 382.984375 238.351562 381.925781 242.664062 378.429688 L 245.601562 375.9375 L 247.664062 377.746094 C 254.722656 383.921875 261.71875 384.796875 267.78125 380.117188 C 271.90625 377.058594 273.027344 372.128906 270.46875 368.886719 C 268.15625 365.953125 255.410156 355.347656 252.785156 354.222656 C 249.351562 352.726562 244.539062 352.289062 241.789062 353.226562 Z M 241.789062 353.226562 " fill-opacity="1" fill-rule="nonzero"/><g clip-path="url(#7488e9533f)"><path fill="#5e46d5" d="M 429.289062 403.761719 C 429.289062 404.324219 429.601562 404.757812 429.914062 404.757812 C 430.289062 404.757812 430.539062 404.511719 430.539062 404.199219 C 430.539062 403.824219 430.289062 403.386719 429.914062 403.199219 C 429.601562 403.011719 429.289062 403.261719 429.289062 403.761719 Z M 429.289062 403.761719 " fill-opacity="1" fill-rule="nonzero"/></g><g fill="#001839" fill-opacity="1"><g transform="translate(470.524815, 292.165233)"><g><path d="M 19.421875 1.84375 C 15.722656 1.84375 12.753906 1 10.515625 -0.6875 C 8.285156 -2.382812 6.9375 -4.660156 6.46875 -7.515625 C 6.007812 -10.367188 6.550781 -13.566406 8.09375 -17.109375 L 69.125 -152.359375 C 71.125 -156.828125 73.550781 -160.023438 76.40625 -161.953125 C 79.257812 -163.878906 82.535156 -164.84375 86.234375 -164.84375 C 89.773438 -164.84375 92.972656 -163.878906 95.828125 -161.953125 C 98.679688 -160.023438 101.109375 -156.828125 103.109375 -152.359375 L 164.375 -17.109375 C 166.070312 -13.566406 166.6875 -10.328125 166.21875 -7.390625 C 165.757812 -4.460938 164.453125 -2.191406 162.296875 -0.578125 C 160.140625 1.035156 157.285156 1.84375 153.734375 1.84375 C 149.421875 1.84375 146.066406 0.804688 143.671875 -1.265625 C 141.285156 -3.347656 139.171875 -6.546875 137.328125 -10.859375 L 122.296875 -45.78125 L 134.78125 -37.6875 L 37.21875 -37.6875 L 49.703125 -45.78125 L 34.90625 -10.859375 C 32.90625 -6.390625 30.828125 -3.15625 28.671875 -1.15625 C 26.515625 0.84375 23.429688 1.84375 19.421875 1.84375 Z M 85.765625 -130.859375 L 53.40625 -53.859375 L 47.390625 -61.265625 L 124.609375 -61.265625 L 118.828125 -53.859375 L 86.234375 -130.859375 Z M 85.765625 -130.859375 "/></g></g></g><g fill="#001839" fill-opacity="1"><g transform="translate(642.518774, 292.165233)"><g><path d="M 67.28125 2.3125 C 55.40625 2.3125 45.078125 -0.113281 36.296875 -4.96875 C 27.515625 -9.820312 20.734375 -16.71875 15.953125 -25.65625 C 11.171875 -34.601562 8.78125 -45.085938 8.78125 -57.109375 C 8.78125 -66.203125 10.128906 -74.332031 12.828125 -81.5 C 15.523438 -88.664062 19.414062 -94.75 24.5 -99.75 C 29.59375 -104.757812 35.757812 -108.613281 43 -111.3125 C 50.238281 -114.007812 58.332031 -115.359375 67.28125 -115.359375 C 72.363281 -115.359375 77.867188 -114.664062 83.796875 -113.28125 C 89.734375 -111.894531 95.320312 -109.582031 100.5625 -106.34375 C 103.03125 -104.800781 104.648438 -102.953125 105.421875 -100.796875 C 106.191406 -98.640625 106.34375 -96.441406 105.875 -94.203125 C 105.414062 -91.972656 104.453125 -90.046875 102.984375 -88.421875 C 101.523438 -86.804688 99.71875 -85.804688 97.5625 -85.421875 C 95.40625 -85.035156 93.015625 -85.535156 90.390625 -86.921875 C 87.003906 -88.929688 83.535156 -90.4375 79.984375 -91.4375 C 76.441406 -92.4375 73.050781 -92.9375 69.8125 -92.9375 C 64.726562 -92.9375 60.257812 -92.125 56.40625 -90.5 C 52.550781 -88.882812 49.273438 -86.570312 46.578125 -83.5625 C 43.878906 -80.5625 41.835938 -76.828125 40.453125 -72.359375 C 39.066406 -67.890625 38.375 -62.726562 38.375 -56.875 C 38.375 -45.46875 41.109375 -36.488281 46.578125 -29.9375 C 52.054688 -23.382812 59.800781 -20.109375 69.8125 -20.109375 C 73.050781 -20.109375 76.40625 -20.570312 79.875 -21.5 C 83.34375 -22.425781 86.847656 -23.890625 90.390625 -25.890625 C 93.015625 -27.273438 95.363281 -27.738281 97.4375 -27.28125 C 99.519531 -26.820312 101.253906 -25.78125 102.640625 -24.15625 C 104.035156 -22.539062 104.882812 -20.613281 105.1875 -18.375 C 105.5 -16.144531 105.226562 -13.945312 104.375 -11.78125 C 103.53125 -9.625 101.953125 -7.851562 99.640625 -6.46875 C 94.554688 -3.382812 89.160156 -1.148438 83.453125 0.234375 C 77.753906 1.617188 72.363281 2.3125 67.28125 2.3125 Z M 67.28125 2.3125 "/></g></g></g><g fill="#001839" fill-opacity="1"><g transform="translate(751.633209, 292.165233)"><g><path d="M 67.28125 2.3125 C 55.40625 2.3125 45.078125 -0.113281 36.296875 -4.96875 C 27.515625 -9.820312 20.734375 -16.71875 15.953125 -25.65625 C 11.171875 -34.601562 8.78125 -45.085938 8.78125 -57.109375 C 8.78125 -66.203125 10.128906 -74.332031 12.828125 -81.5 C 15.523438 -88.664062 19.414062 -94.75 24.5 -99.75 C 29.59375 -104.757812 35.757812 -108.613281 43 -111.3125 C 50.238281 -114.007812 58.332031 -115.359375 67.28125 -115.359375 C 72.363281 -115.359375 77.867188 -114.664062 83.796875 -113.28125 C 89.734375 -111.894531 95.320312 -109.582031 100.5625 -106.34375 C 103.03125 -104.800781 104.648438 -102.953125 105.421875 -100.796875 C 106.191406 -98.640625 106.34375 -96.441406 105.875 -94.203125 C 105.414062 -91.972656 104.453125 -90.046875 102.984375 -88.421875 C 101.523438 -86.804688 99.71875 -85.804688 97.5625 -85.421875 C 95.40625 -85.035156 93.015625 -85.535156 90.390625 -86.921875 C 87.003906 -88.929688 83.535156 -90.4375 79.984375 -91.4375 C 76.441406 -92.4375 73.050781 -92.9375 69.8125 -92.9375 C 64.726562 -92.9375 60.257812 -92.125 56.40625 -90.5 C 52.550781 -88.882812 49.273438 -86.570312 46.578125 -83.5625 C 43.878906 -80.5625 41.835938 -76.828125 40.453125 -72.359375 C 39.066406 -67.890625 38.375 -62.726562 38.375 -56.875 C 38.375 -45.46875 41.109375 -36.488281 46.578125 -29.9375 C 52.054688 -23.382812 59.800781 -20.109375 69.8125 -20.109375 C 73.050781 -20.109375 76.40625 -20.570312 79.875 -21.5 C 83.34375 -22.425781 86.847656 -23.890625 90.390625 -25.890625 C 93.015625 -27.273438 95.363281 -27.738281 97.4375 -27.28125 C 99.519531 -26.820312 101.253906 -25.78125 102.640625 -24.15625 C 104.035156 -22.539062 104.882812 -20.613281 105.1875 -18.375 C 105.5 -16.144531 105.226562 -13.945312 104.375 -11.78125 C 103.53125 -9.625 101.953125 -7.851562 99.640625 -6.46875 C 94.554688 -3.382812 89.160156 -1.148438 83.453125 0.234375 C 77.753906 1.617188 72.363281 2.3125 67.28125 2.3125 Z M 67.28125 2.3125 "/></g></g></g><g fill="#001839" fill-opacity="1"><g transform="translate(860.74766, 292.165233)"><g><path d="M 66.578125 2.3125 C 54.867188 2.3125 44.695312 -0.0703125 36.0625 -4.84375 C 27.4375 -9.625 20.734375 -16.445312 15.953125 -25.3125 C 11.171875 -34.175781 8.78125 -44.617188 8.78125 -56.640625 C 8.78125 -65.734375 10.128906 -73.863281 12.828125 -81.03125 C 15.523438 -88.195312 19.414062 -94.359375 24.5 -99.515625 C 29.59375 -104.679688 35.679688 -108.613281 42.765625 -111.3125 C 49.859375 -114.007812 57.796875 -115.359375 66.578125 -115.359375 C 78.296875 -115.359375 88.46875 -112.96875 97.09375 -108.1875 C 105.726562 -103.414062 112.429688 -96.632812 117.203125 -87.84375 C 121.984375 -79.0625 124.375 -68.660156 124.375 -56.640625 C 124.375 -47.546875 123.023438 -39.375 120.328125 -32.125 C 117.628906 -24.882812 113.738281 -18.679688 108.65625 -13.515625 C 103.570312 -8.359375 97.484375 -4.429688 90.390625 -1.734375 C 83.304688 0.960938 75.367188 2.3125 66.578125 2.3125 Z M 66.578125 -19.65625 C 72.285156 -19.65625 77.296875 -21.039062 81.609375 -23.8125 C 85.921875 -26.582031 89.269531 -30.703125 91.65625 -36.171875 C 94.050781 -41.648438 95.25 -48.472656 95.25 -56.640625 C 95.25 -68.972656 92.628906 -78.179688 87.390625 -84.265625 C 82.148438 -90.359375 75.210938 -93.40625 66.578125 -93.40625 C 60.878906 -93.40625 55.867188 -92.054688 51.546875 -89.359375 C 47.234375 -86.660156 43.882812 -82.570312 41.5 -77.09375 C 39.113281 -71.625 37.921875 -64.804688 37.921875 -56.640625 C 37.921875 -44.460938 40.539062 -35.253906 45.78125 -29.015625 C 51.019531 -22.773438 57.953125 -19.65625 66.578125 -19.65625 Z M 66.578125 -19.65625 "/></g></g></g><g fill="#001839" fill-opacity="1"><g transform="translate(993.904297, 292.165233)"><g><path d="M 55.953125 2.3125 C 46.546875 2.3125 38.757812 0.578125 32.59375 -2.890625 C 26.425781 -6.359375 21.835938 -11.5625 18.828125 -18.5 C 15.828125 -25.4375 14.328125 -34.066406 14.328125 -44.390625 L 14.328125 -100.328125 C 14.328125 -105.265625 15.5625 -108.925781 18.03125 -111.3125 C 20.5 -113.707031 24.046875 -114.90625 28.671875 -114.90625 C 33.296875 -114.90625 36.878906 -113.707031 39.421875 -111.3125 C 41.960938 -108.925781 43.234375 -105.265625 43.234375 -100.328125 L 43.234375 -43.921875 C 43.234375 -35.910156 44.847656 -29.976562 48.078125 -26.125 C 51.316406 -22.269531 56.484375 -20.34375 63.578125 -20.34375 C 71.285156 -20.34375 77.601562 -23 82.53125 -28.3125 C 87.46875 -33.632812 89.9375 -40.6875 89.9375 -49.46875 L 89.9375 -100.328125 C 89.9375 -105.265625 91.164062 -108.925781 93.625 -111.3125 C 96.09375 -113.707031 99.640625 -114.90625 104.265625 -114.90625 C 108.890625 -114.90625 112.472656 -113.707031 115.015625 -111.3125 C 117.554688 -108.925781 118.828125 -105.265625 118.828125 -100.328125 L 118.828125 -12.953125 C 118.828125 -3.085938 114.128906 1.84375 104.734375 1.84375 C 100.265625 1.84375 96.796875 0.570312 94.328125 -1.96875 C 91.859375 -4.507812 90.625 -8.171875 90.625 -12.953125 L 90.625 -30.515625 L 93.859375 -23.578125 C 90.617188 -15.253906 85.722656 -8.859375 79.171875 -4.390625 C 72.628906 0.078125 64.890625 2.3125 55.953125 2.3125 Z M 55.953125 2.3125 "/></g></g></g><g fill="#001839" fill-opacity="1"><g transform="translate(1127.754426, 292.165233)"><g><path d="M 29.359375 1.84375 C 24.734375 1.84375 21.1875 0.570312 18.71875 -1.96875 C 16.257812 -4.507812 15.03125 -8.171875 15.03125 -12.953125 L 15.03125 -100.328125 C 15.03125 -105.109375 16.257812 -108.734375 18.71875 -111.203125 C 21.1875 -113.671875 24.65625 -114.90625 29.125 -114.90625 C 33.59375 -114.90625 37.0625 -113.671875 39.53125 -111.203125 C 42 -108.734375 43.234375 -105.109375 43.234375 -100.328125 L 43.234375 -84.609375 L 40.6875 -90.390625 C 44.082031 -98.554688 49.363281 -104.757812 56.53125 -109 C 63.695312 -113.238281 71.828125 -115.359375 80.921875 -115.359375 C 90.015625 -115.359375 97.488281 -113.660156 103.34375 -110.265625 C 109.195312 -106.878906 113.585938 -101.753906 116.515625 -94.890625 C 119.441406 -88.035156 120.90625 -79.367188 120.90625 -68.890625 L 120.90625 -12.953125 C 120.90625 -8.171875 119.671875 -4.507812 117.203125 -1.96875 C 114.742188 0.570312 111.203125 1.84375 106.578125 1.84375 C 101.953125 1.84375 98.367188 0.570312 95.828125 -1.96875 C 93.285156 -4.507812 92.015625 -8.171875 92.015625 -12.953125 L 92.015625 -67.5 C 92.015625 -76.289062 90.359375 -82.6875 87.046875 -86.6875 C 83.734375 -90.695312 78.609375 -92.703125 71.671875 -92.703125 C 63.191406 -92.703125 56.445312 -90.039062 51.4375 -84.71875 C 46.425781 -79.40625 43.921875 -72.359375 43.921875 -63.578125 L 43.921875 -12.953125 C 43.921875 -3.085938 39.066406 1.84375 29.359375 1.84375 Z M 29.359375 1.84375 "/></g></g></g><g fill="#001839" fill-opacity="1"><g transform="translate(1262.991598, 292.165233)"><g><path d="M 66.8125 2.3125 C 56.789062 2.3125 48.425781 0.617188 41.71875 -2.765625 C 35.019531 -6.160156 30.050781 -11.132812 26.8125 -17.6875 C 23.582031 -24.238281 21.96875 -32.367188 21.96875 -42.078125 L 21.96875 -91.3125 L 9.9375 -91.3125 C 6.238281 -91.3125 3.382812 -92.273438 1.375 -94.203125 C -0.625 -96.128906 -1.625 -98.789062 -1.625 -102.1875 C -1.625 -105.726562 -0.625 -108.421875 1.375 -110.265625 C 3.382812 -112.117188 6.238281 -113.046875 9.9375 -113.046875 L 21.96875 -113.046875 L 21.96875 -134.09375 C 21.96875 -138.863281 23.238281 -142.484375 25.78125 -144.953125 C 28.320312 -147.421875 31.90625 -148.65625 36.53125 -148.65625 C 41.15625 -148.65625 44.695312 -147.421875 47.15625 -144.953125 C 49.625 -142.484375 50.859375 -138.863281 50.859375 -134.09375 L 50.859375 -113.046875 L 75.359375 -113.046875 C 79.066406 -113.046875 81.921875 -112.117188 83.921875 -110.265625 C 85.921875 -108.421875 86.921875 -105.726562 86.921875 -102.1875 C 86.921875 -98.789062 85.921875 -96.128906 83.921875 -94.203125 C 81.921875 -92.273438 79.066406 -91.3125 75.359375 -91.3125 L 50.859375 -91.3125 L 50.859375 -43.6875 C 50.859375 -36.289062 52.476562 -30.742188 55.71875 -27.046875 C 58.957031 -23.347656 64.195312 -21.5 71.4375 -21.5 C 74.050781 -21.5 76.359375 -21.726562 78.359375 -22.1875 C 80.367188 -22.65625 82.144531 -22.96875 83.6875 -23.125 C 85.539062 -23.269531 87.082031 -22.6875 88.3125 -21.375 C 89.539062 -20.070312 90.15625 -17.414062 90.15625 -13.40625 C 90.15625 -10.320312 89.65625 -7.585938 88.65625 -5.203125 C 87.65625 -2.816406 85.847656 -1.160156 83.234375 -0.234375 C 81.222656 0.378906 78.597656 0.957031 75.359375 1.5 C 72.128906 2.039062 69.28125 2.3125 66.8125 2.3125 Z M 66.8125 2.3125 "/></g></g></g><g fill="#001839" fill-opacity="1"><g transform="translate(1351.76267, 292.165233)"><g><path d="M 56.40625 2.3125 C 49.78125 2.3125 42.769531 1.617188 35.375 0.234375 C 27.976562 -1.148438 21.347656 -3.539062 15.484375 -6.9375 C 13.023438 -8.476562 11.289062 -10.285156 10.28125 -12.359375 C 9.28125 -14.441406 8.894531 -16.523438 9.125 -18.609375 C 9.363281 -20.691406 10.132812 -22.503906 11.4375 -24.046875 C 12.75 -25.585938 14.445312 -26.585938 16.53125 -27.046875 C 18.613281 -27.515625 20.882812 -27.128906 23.34375 -25.890625 C 29.507812 -22.960938 35.289062 -20.921875 40.6875 -19.765625 C 46.082031 -18.609375 51.398438 -18.03125 56.640625 -18.03125 C 64.035156 -18.03125 69.546875 -19.300781 73.171875 -21.84375 C 76.796875 -24.382812 78.609375 -27.738281 78.609375 -31.90625 C 78.609375 -35.445312 77.410156 -38.179688 75.015625 -40.109375 C 72.628906 -42.035156 69.046875 -43.460938 64.265625 -44.390625 L 41.15625 -48.78125 C 31.59375 -50.632812 24.304688 -54.140625 19.296875 -59.296875 C 14.296875 -64.460938 11.796875 -71.128906 11.796875 -79.296875 C 11.796875 -86.691406 13.835938 -93.085938 17.921875 -98.484375 C 22.003906 -103.878906 27.664062 -108.039062 34.90625 -110.96875 C 42.15625 -113.894531 50.476562 -115.359375 59.875 -115.359375 C 66.65625 -115.359375 73.007812 -114.625 78.9375 -113.15625 C 84.875 -111.695312 90.617188 -109.425781 96.171875 -106.34375 C 98.484375 -105.113281 100.0625 -103.492188 100.90625 -101.484375 C 101.757812 -99.484375 101.953125 -97.441406 101.484375 -95.359375 C 101.023438 -93.285156 100.101562 -91.4375 98.71875 -89.8125 C 97.332031 -88.195312 95.597656 -87.195312 93.515625 -86.8125 C 91.429688 -86.425781 89.082031 -86.847656 86.46875 -88.078125 C 81.6875 -90.546875 77.097656 -92.316406 72.703125 -93.390625 C 68.316406 -94.472656 64.117188 -95.015625 60.109375 -95.015625 C 52.554688 -95.015625 46.96875 -93.703125 43.34375 -91.078125 C 39.726562 -88.460938 37.921875 -85 37.921875 -80.6875 C 37.921875 -77.445312 39 -74.75 41.15625 -72.59375 C 43.3125 -70.4375 46.625 -68.972656 51.09375 -68.203125 L 74.21875 -63.8125 C 84.226562 -61.957031 91.816406 -58.5625 96.984375 -53.625 C 102.148438 -48.695312 104.734375 -42.070312 104.734375 -33.75 C 104.734375 -22.5 100.335938 -13.675781 91.546875 -7.28125 C 82.765625 -0.882812 71.050781 2.3125 56.40625 2.3125 Z M 56.40625 2.3125 "/></g></g></g></svg>