<?xml version="1.0" standalone="no"?>
<!DOCTYPE svg PUBLIC "-//W3C//DTD SVG 20010904//EN"
 "http://www.w3.org/TR/2001/REC-SVG-20010904/DTD/svg10.dtd">
<svg version="1.0" xmlns="http://www.w3.org/2000/svg"
 width="599.000000pt" height="571.000000pt" viewBox="0 0 599.000000 571.000000"
 preserveAspectRatio="xMidYMid meet" fill="none">

<g transform="translate(0.000000,571.000000) scale(0.100000,-0.100000)"
fill="#000000" stroke="none">
<path d="M400 5516 c-103 -23 -184 -79 -238 -164 -62 -98 -62 -92 -62 -789 l0
-633 185 0 185 0 0 598 c0 568 1 600 18 615 17 15 78 17 665 17 l647 0 0 185
0 185 -672 -1 c-491 0 -688 -4 -728 -13z"/>
<path d="M4140 5345 l0 -185 648 0 c616 0 650 -1 665 -18 15 -17 17 -74 17
-615 l0 -597 185 0 186 0 -3 654 -3 653 -40 79 c-46 91 -109 148 -202 185
l-58 24 -697 3 -698 3 0 -186z"/>
<path d="M2720 4969 c-589 -70 -1118 -405 -1426 -901 -145 -233 -275 -587
-274 -746 1 -161 161 -233 279 -126 46 41 52 54 90 204 152 593 639 1063 1234
1192 141 30 510 33 662 4 621 -116 1130 -604 1277 -1226 17 -72 21 -137 27
-425 7 -310 10 -345 29 -399 42 -115 102 -162 195 -153 57 5 95 30 119 78 16
30 18 68 18 334 0 349 -14 503 -65 701 -192 750 -796 1308 -1570 1450 -105 19
-476 28 -595 13z"/>
<path d="M2745 4275 c-272 -48 -481 -154 -678 -344 -140 -135 -239 -279 -311
-453 -33 -80 -58 -169 -101 -362 -55 -246 -260 -453 -533 -536 -115 -35 -162
-88 -162 -182 1 -100 69 -172 161 -171 143 2 416 143 579 300 181 173 273 341
321 589 66 344 233 575 514 715 156 77 228 93 425 92 146 0 176 -3 263 -26
215 -57 410 -191 525 -359 50 -73 109 -204 133 -293 18 -67 23 -123 29 -350 9
-300 25 -412 81 -553 117 -297 359 -528 654 -623 106 -34 175 -18 229 54 28
38 34 133 11 181 -21 43 -54 65 -163 105 -211 77 -362 238 -422 451 -25 89
-39 269 -39 475 0 93 -5 183 -15 236 -92 512 -497 932 -1006 1044 -105 23
-390 29 -495 10z"/>
<path d="M2884 3600 c-141 -20 -293 -96 -377 -190 -94 -106 -143 -218 -176
-404 -12 -65 -31 -146 -42 -180 -151 -449 -567 -807 -1087 -936 -56 -14 -118
-71 -134 -122 -22 -74 20 -165 94 -204 37 -19 96 -18 188 6 583 149 1093 601
1270 1126 17 49 42 149 56 224 32 170 65 237 139 286 114 76 263 66 347 -23
60 -63 71 -109 80 -333 16 -425 66 -658 197 -925 189 -384 480 -647 880 -795
98 -36 152 -38 205 -7 54 30 78 67 84 125 10 106 -28 153 -166 206 -333 128
-552 328 -696 637 -105 226 -143 411 -156 764 -6 163 -14 259 -25 299 -43 159
-173 319 -315 388 -41 19 -95 40 -120 46 -69 16 -178 21 -246 12z"/>
<path d="M2875 2614 c-52 -27 -65 -45 -145 -209 -87 -179 -131 -251 -230 -375
-126 -158 -304 -312 -515 -445 -104 -66 -341 -183 -435 -216 -123 -42 -166
-96 -158 -197 5 -59 27 -94 79 -130 51 -35 132 -26 280 31 478 184 885 513
1163 939 65 100 167 300 191 375 29 90 2 181 -67 223 -40 24 -120 26 -163 4z"/>
<path d="M102 1133 l3 -658 27 -57 c56 -120 169 -201 304 -219 38 -4 360 -8
717 -9 l647 0 0 185 0 185 -648 0 c-616 0 -650 1 -665 18 -15 17 -17 74 -17
615 l0 597 -185 0 -186 0 3 -657z"/>
<path d="M5470 1192 c0 -568 -1 -600 -18 -615 -17 -15 -78 -17 -665 -17 l-647
0 0 -185 0 -185 648 0 c372 0 677 5 717 10 139 20 246 97 304 220 l26 55 3
658 3 657 -186 0 -185 0 0 -598z"/>
<path d="M3080 1713 c-71 -12 -100 -30 -195 -122 -352 -340 -517 -470 -770
-607 -50 -27 -106 -63 -126 -81 -114 -103 -37 -293 118 -293 78 0 369 165 573
324 96 74 265 224 344 304 l69 70 33 -40 c207 -246 446 -450 659 -559 91 -46
105 -51 153 -47 91 8 152 73 152 162 0 85 -21 111 -156 194 -229 141 -363 261
-560 502 -137 168 -201 210 -294 193z"/>
<path d="M2969 826 c-43 -15 -279 -204 -312 -249 -16 -23 -22 -46 -22 -84 0
-44 5 -57 30 -84 40 -42 86 -60 151 -60 60 0 98 17 167 73 l47 40 33 -29 c113
-99 225 -113 322 -38 66 49 84 128 43 180 -37 47 -241 217 -283 235 -55 24
-132 31 -176 16z"/>
<path d="M5970 16 c0 -9 5 -16 10 -16 6 0 10 4 10 9 0 6 -4 13 -10 16 -5 3
-10 -1 -10 -9z"/>
</g>
</svg>
