<svg xmlns="http://www.w3.org/2000/svg" viewBox="0 0 1024 1024" xml:space="preserve"><path fill="none" d="M706 1025H1V1h1024v1024H706m198.232-506.013s.172.388.648.22c.164-.285.328-.57.12-1.197.122.116.244.233.855.163.16-.303.32-.605.34-1.025 0 0 .08.166.58-.05.152-.324.305-.647.343-.997 0 0 .066.098.576-.196.246-.523.492-1.047.741-1.738 0 0-.058.157.415-.082.112-.333.223-.666.236-1.015 0 0 .046.088.548-.269.189-.576.377-1.152.471-1.739 0 0 .027.09.571-.41 3.34-8.057 3.437-16.037-.57-24.295 0 0-.115-.36-.067-1.034-.632-1.161-1.264-2.322-1.927-3.394 0 0 .094-.013.02-.622-.334-.487-.669-.974-1.058-1.334 0 0 .102-.094-.015-.767-1.022-1.733-2.044-3.467-3.216-5.884-1.874-3.179-3.748-6.358-5.671-9.431 0 0 .11-.034.005-.635-.339-.48-.677-.958-1.053-1.343 0 0 .101-.009.002-.608-.337-.483-.674-.965-1.047-1.365 0 0 .09-.005-.003-.596-.337-.48-.675-.958-1.067-1.363 0 0 .085-.036-.014-.66-.574-.854-1.147-1.708-1.807-2.422 0 0 .142-.084.036-.683-.34-.474-.68-.95-1.06-1.323 0 0 .106-.02.009-.627-.338-.482-.677-.963-1.052-1.351 0 0 .1-.01-.003-.605-.34-.48-.68-.96-1.062-1.363 0 0 .086.003-.05-.633-.293-.309-.585-.618-.769-1.292-.043-.25-.087-.5.466-.966.84-.611 1.679-1.222 2.418-1.884 0 0 .023.11.616-.008.473-.346.945-.691 1.333-1.09 0 0 .01.099.553-.066.214-.306.429-.612 1.174-.933.446-.228.893-.456 1.798-.84 0 0 .398-.276 1.062-.453 11.814-7.164 23.628-14.328 36.024-21.652.477-.35.953-.7 1.329-1.1 0 0 .07.087.73-.065 1.777-1.308 3.554-2.615 5.795-4.076.293-.19.464-.457 1.023-1.099.275-.505.549-1.011.775-1.435 0 0 .093-.02.595-.304.4-.654.801-1.308 1.107-2.037 0 0 .057.106.618-.336 4.04-7.525 5.033-15.108.39-22.714 0 0 .093-.029-.055-.556-.3-.196-.6-.392-.91-.464 0 0 .124-.02.008-.637-.31-.495-.62-.99-.992-1.32 0 0 .102-.143-.127-.76-1.62-1.458-3.241-2.917-4.947-4.274 0 0 .118-.061-.271-.637-8.865-5.516-17.843-6.253-26.983-.691 0 0-.05-.017-.693.088-1.073.723-2.147 1.447-3.136 2.202 0 0 0-.091-.582.02-.47.341-.94.683-1.365 1.07 0 0-.027-.058-.639.078-.834.6-1.668 1.2-2.388 1.847 0 0-.073-.098-.725.05-1.456.974-2.912 1.948-4.261 2.97 0 0-.071-.094-.723.052-1.462.966-2.924 1.932-4.279 2.946 0 0-.07-.094-.722.051-1.46.968-2.922 1.936-4.307 2.943 0 0 .01-.084-.646.056-.308.306-.616.611-1.116.785 0 0-.183.143-.803.274-.84.612-1.68 1.225-2.438 1.869 0 0 .002-.088-.583.018-.475.337-.95.674-1.372 1.06 0 0-.029-.066-.642.065-.833.604-1.666 1.207-2.383 1.854 0 0-.078-.097-.73.05-1.464.968-2.927 1.935-4.298 2.937 0 0-.001-.097-.587.015-.473.342-.946.684-1.36 1.077 0 0-.033-.07-.645.064-.834.602-1.667 1.204-2.41 1.84 0 0-.002-.096-.59.009-.475.343-.949.687-1.353 1.082 0 0-.04-.076-.776.05-1.679-2.08-3.357-4.16-5.031-6.129 0 0 .097-.053 0-.656-.342-.48-.683-.96-1.059-1.346 0 0 .1-.01.011-.616-.336-.484-.672-.97-1.057-1.37 0 0 .096-.009-.062-.562-.306-.222-.612-.445-.923-1.38-2.626-4.729-5.253-9.457-7.908-14.076 0 0 .101-.05.018-.66-.34-.483-.678-.966-1.065-1.292 0 0 .103-.127.007-.566 0 0-.246-.376-.45-1.011-9.393-13.926-25.034-18.449-39.455-10.718-9.699 5.199-18.894 11.337-28.897 17.22-.478.356-.955.71-1.362 1.106 0 0-.025-.076-.679.07-1.471.956-2.943 1.912-4.33 2.908 0 0-.036-.086-.686.07-1.465.965-2.93 1.929-4.312 2.933 0 0-.035-.085-.689.06-1.467.964-2.934 1.929-4.315 2.934 0 0-.037-.087-.691.058-1.466.966-2.932 1.933-4.31 2.937 0 0-.039-.087-.695.054-1.47.964-2.938 1.929-4.311 2.929 0 0-.05-.09-.703.06-1.469.964-2.937 1.929-4.307 2.923 0 0-.05-.09-.708.044-1.466.973-2.931 1.946-4.295 2.948 0 0-.054-.091-.708.057-1.465.971-2.93 1.942-4.292 2.94 0 0-.056-.09-.734.057-2.11 1.318-4.22 2.636-6.244 3.992 0 0-.039-.086-.695.056-1.474.959-2.948 1.917-4.322 2.906 0 0-.053-.09-.664.066-.812.654-1.623 1.308-2.87 2.047-.295.136-.465.366-1.116.961-1.187 1.305-2.374 2.61-3.98 4.073-.255.201-.377.464-.882 1.159-.518.903-1.035 1.806-1.47 2.743 0 0-.036-.082-.514.296-.205.563-.41 1.125-.524 1.685 0 0-.026-.088-.586.367-5.874 11.703-3.217 22.485 3.572 32.73 0 0-.1 0-.005.602.338.486.676.972 1.05 1.37 0 0-.085.04.062.735 1.624 2.793 3.25 5.586 4.903 8.288 0 0-.095-.003-.005.6.334.489.668.978 1.036 1.38 0 0-.085.04.056.742 1.963 3.455 3.926 6.91 5.92 10.268 0 0-.089.048.061.78.293 1.371.585 2.743.954 4.145 0 0 .015-.081-.577.007-.486.328-.971.656-1.393 1.027 0 0-.023-.073-.707.09-3.125 1.951-6.25 3.901-9.298 5.895 0 0-.032-.083-.685.062-1.47.96-2.939 1.92-4.321 2.922 0 0-.04-.088-.696.051-1.471.963-2.942 1.925-4.316 2.921 0 0-.049-.09-.703.057-1.467.967-2.934 1.934-4.3 2.934 0 0-.054-.09-.71.05-1.468.968-2.936 1.937-4.306 2.939 0 0 .003-.103-.586.009-.476.344-.952.688-1.37 1.073 0 0-.02-.068-.633.068-.831.61-1.663 1.22-2.397 1.862 0 0-.047-.09-.738.064-3.582 2.074-7.3 3.947-10.717 6.264-6.926 4.697-11.525 10.87-11.505 20.55-.117 8.078 3.756 14.172 9.87 19.834.365.168.728.337 1.08.417 0 0-.08.036.333.605 9.063 4.93 18.032 5.195 26.765-.56 0 0 .082.085.732-.065 1.456-.978 2.91-1.957 4.26-2.969 0 0 .065.09.723-.044a198.42 198.42 0 0 0 4.294-2.898s.083.062.626-.045c.556-.42 1.113-.839 2.008-1.314 0 0 .241-.244.805-.403 10.539-6.347 21.077-12.693 32.316-19.234.7.004 1.4.008 2.16-.068 0 0-.1.017.016.68.924 1.494 1.847 2.988 2.831 4.363 0 0-.122.055-.013.652.347.473.694.946 1.09 1.319 0 0-.105.034-.013.554.235.228.47.457.732.73 0 0-.015.049.1.753 3.106 5.8 5.672 11.992 9.486 17.283 3.175 4.405 7.816 7.754 12.18 11.8 0 0 .431.074.573-.003 0 0-.16.016.186.54.585.213 1.17.427 2.117 1.071.535.167 1.07.334 2.106 1.1 11.423 2.187 22.217 1.126 32.2-5.525 3.926-2.617 8.335-4.511 12.518-5.983 6.692 34.645.436 66.677-19.8 95.681-5.085 7.286-10.61 14.43-16.904 20.657-5.466 5.408-12.305 9.428-18.497 14.083 0 0-.023-.021-.705.146-6.383 3.36-12.766 6.721-19.613 10.07-.334.057-.569.24-1.465.737-9.009 2.447-18.017 4.894-27.836 7.286-2.433.37-4.866.74-8.137 1.041-5.983.253-11.967.723-17.95.726-120.25.05-240.498.094-360.747.023-36.461-.02-72.922-.39-110.177-.812-3.729-.251-7.634.12-11.151-.878-8.76-2.484-17.344-5.591-26.317-8.87-.505-.129-1.01-.257-1.95-.85-.595-.193-1.19-.387-1.782-.496 0 0 .077-.034-.302-.51-.56-.213-1.121-.426-1.982-1.07-.49-.158-.98-.315-1.886-.97-.592-.244-1.185-.489-2.021-1.122-.247-.21-.532-.302-1.192-.514 0 0-.406-.079-.501-.021 0 0 .092.061-.13-.436-.33-.131-.663-.262-1.008-.313 0 0 .067-.047-.315-.504-.53-.244-1.062-.49-1.602-.63 0 0 .093-.048-.214-.557-.537-.228-1.075-.456-1.71-.615 0 0 .11.045-.074-.489-.335-.165-.67-.33-1.212-.888-.22-.226-.486-.34-1.193-.807-.532-.287-1.064-.574-1.974-1.388-14.417-10.257-25.504-23.612-35.633-38.77-4.093-9.093-8.186-18.186-12.315-28.053-1.943-11.09-3.886-22.18-5.733-34.024-.052-.756-.104-1.513-.042-3.186-.026-5.35-.052-10.7.028-16.659.013-.412.026-.825.614-1.571.123-1.615.246-3.23.427-5.243 0 0 .006-.401.65-.827.09-1.257.18-2.514.345-4.167 0 0 .013-.401.645-.813.847-3.566 1.695-7.132 2.438-10.718 0 0 .032.102.606-.29.156-.904.312-1.808.36-2.715 0 0 .041.1.581-.242.109-.61.218-1.22.44-2.168 0 0-.017-.357.562-.773.214-.679.43-1.357 1.122-2.503 7.783-19.697 19.577-36.536 35.666-50.37 11.847-10.187 25.42-17.427 40.252-23.794.5-.377 1-.754 1.89-1.145 0 0 .375-.114.988-.05.511-.297 1.022-.594 1.439-.924 0 0 .03.095.86-.016 2.392-.345 4.777-.917 7.176-.989 6.094-.182 11.63-1.667 16.687-6.243.762-.893 1.523-1.786 2.818-3.03.52-.908 1.038-1.816 1.468-2.81 0 0 .042.118.575-.305.693-1.902 1.386-3.803 2.343-6.461.977-4.093 1.955-8.185 3.165-12.998 2.967-10.085 5.934-20.17 9.012-30.577 0 0-.031-.338.57-.74.537-1.346 1.072-2.692 2.085-4.495 10.73-24.519 25.44-46.412 45.631-63.956 12.33-10.714 26.271-19.571 40.075-29.442.245-.32.49-.64 1.119-.974 0 0 .366-.12.92-.133.231-.283.462-.565 1.077-.866 0 0 .364-.123 1.003-.11.838-.61 1.675-1.22 2.425-1.863 0 0 .014.093.7-.005 1.156-.666 2.311-1.333 3.861-2.02 0 0 .379-.115.939-.122.228-.288.456-.576 1.067-.877 0 0 .37-.103.937-.102.226-.296.452-.591 1.058-.889 0 0 .371-.087.937-.068.198-.31.397-.62.505-.918 0 0 .049.076.82.067 20.081-7.74 40.64-13.547 63.015-15.29 9.681.01 19.363.021 29.926.165 15.787.502 30.962 4.307 46.611 8.885 1.468.458 2.936.916 4.868 1.951 21.911 6.834 41.222 18.49 59.668 32.657.341.163.682.326 1.562.771 1.058.935 2.115 1.87 3.454 3.31.337.142.674.285 1.268.565 0 0 .286-.047.619.471.34.222.68.444 1.182 1.054.191.228.435.354 1.094.962 5.839 5.697 11.98 11.117 17.458 17.142 14.966 16.464 27.602 34.513 36.18 56.049 4.11 12.7 8.218 25.401 12.335 38.866.57 1.879 1.238 3.735 1.696 5.642 1.916 7.973 5.632 14.646 13.733 19.056 10.317 5.181 20.282 5.265 29.714-2.196 0 0-.062.123.553.06.446-.41.892-.82 1.904-1.428.774-.894 1.548-1.788 2.86-3.005.243-.556.486-1.112.593-1.702 0 0 .039.135.595-.009.146-.348.292-.697.335-1.056 0 0 .033.098.618-.286 1.05-2.927 2.1-5.854 3.324-9.68.042-19.212-5.133-37.335-11.772-55.956-3.066-7.096-6.131-14.193-9.22-21.2 0 0 .092-.002.013-.611-.33-.494-.66-.988-1.015-1.39 0 0 .095 0 .019-.612-.33-.495-.66-.99-1.016-1.39 0 0 .097 0 .019-.614-.33-.495-.66-.99-1.015-1.39 0 0 .1 0 .017-.61-.334-.49-.669-.981-1.024-1.38 0 0 .083-.045-.02-.693-.656-.83-1.314-1.662-1.986-3.204-1.89-3.359-3.78-6.717-5.922-10.755-13.449-21.97-29.528-41.75-49.272-59.261-1.245-1.033-2.49-2.065-4.03-3.61-.502-.278-1.004-.556-1.481-.881 0 0 .008-.053-.24-.562-.624-.423-1.248-.847-1.963-1.207 0 0 .096.054-.098-.483-.317-.202-.635-.405-1.12-1-.196-.234-.445-.359-1.014-.815-.286-.173-.57-.346-1.24-1.068-14.076-9.34-27.698-19.484-42.374-27.757-11.42-6.438-24.155-10.543-36.68-15.762 0 0-.384.001-.756-.583-.654-.2-1.308-.398-2.146-.64 0 0-.105.156-.6-.462-3.004-.905-6.01-1.81-9.614-3.109a9063.974 9063.974 0 0 1-33.131-7.222c-1.115.033-2.23.066-3.784.034 0 0-.443.001-.911-.645-6.527-.386-13.053-.772-20.231-1.295-.444-.019-.887-.038-1.832-.77-7.512-.047-15.023-.094-23.251-.272-.481.05-.962.098-1.864.07 0 0-.417.097-1.304-.025-3.809.317-7.682.297-11.415 1.01-15.273 2.918-30.504 6.06-46.503 9.162-87.574 29.196-146.458 86.864-173.979 175.54-.918 2.956-2.366 4.283-5.065 5.268-30.273 11.047-56.125 28.578-77.75 53.293-.277.498-.555.995-.74 1.416 0 0-.12.001-.666.257-.474.647-.948 1.293-1.973 2.29-4.589 6.3-9.528 12.375-13.705 18.936-17.077 26.82-26.548 56.155-28.434 88.85.034 8.302.069 16.605-.026 25.796 1.007 8.006 1.583 16.094 3.107 24 3.53 18.298 9.203 35.9 18.823 52.735.35.523.7 1.047 1.092 1.498 0 0-.083.001.041.646.29.314.58.627.815 1.373.225.354.45.709.909 1.654.375.487.75.973 1.106 1.472 0 0-.02.018.123.7 9.733 16.255 21.58 30.751 36.246 43.659.502.278 1.004.557 1.438.833 0 0 .006.067.247.586.62.44 1.238.88 1.95 1.263 0 0-.092-.059.1.48.319.202.637.403 1.127.997.198.231.448.355 1.08.872.514.273 1.028.545 1.506.86 0 0-.004.054.254.563.641.409 1.282.818 1.986 1.15 0 0-.099-.022.12.476.312.168.624.337.944.418 0 0-.075.046.258.59.885.577 1.77 1.155 2.842 2.11.21.212.464.32 1.16.88 23.152 16.605 48.684 27.545 77.64 32.432 9.89.982 19.772 2.748 29.667 2.814 45.658.307 91.32.16 136.98.139 36.16-.017 72.32-.087 109.276.013 1.079-.043 2.157-.086 4.164-.007 71.193.012 142.385.024 213.578.028 1.16 0 2.321-.111 4.384-.045 24.137-.974 47.56-5.681 69.336-16.123 68.898-33.039 107.016-87.272 110.68-164.265.587-12.32-.978-24.78-2.112-37.123-.458-4.973-2.433-9.807-3.727-15.09 0 0-.057-.381.247-.924-.466-2.15-.931-4.3-1.317-6.894 0 0 .03-.45.714-.726 3.8-1.918 7.599-3.836 11.3-5.818 0 0 .06.101.662-.072.89-.835 1.78-1.67 2.577-2.553l.584-.188c.175-.277.351-.554.382-1.23z"/><path fill="red" d="M207.007 458.964s-.375.114-.92.124c-1.022.434-1.5.858-1.979 1.281-14.197 6.22-27.771 13.46-39.618 23.648-16.089 13.834-27.883 30.673-36.224 50.802-.753 1.117-.948 1.802-1.143 2.487 0 0 .017.357-.3.706-.432.954-.547 1.558-.663 2.161 0 0-.041-.1-.308.069-.4 1.092-.534 2.015-.667 2.938 0 0-.032-.102-.324.064-1.12 3.766-1.95 7.365-2.778 10.964 0 0-.013.401-.33.845-.435 1.679-.553 2.914-.672 4.149 0 0-.006.401-.26.707-.534.506-.732.769-1.228 1.1-1.83 1.6-3.038 3.554-4.776 4.714-6.26 4.18-13 7.694-18.968 12.235-4.296 3.268-7.873 6.706-13.477 1.815-.443 1.744-.96 2.818-.943 3.883.059 3.928-9.26 10.686-12.707 8.995-.925-.454-1.396-1.763-2.197-2.557-1.1-1.09-2.315-2.063-3.5-3.555-.324-6.46-.63-12.452-.934-18.443 1.764-31.783 11.235-61.119 28.312-87.938 4.177-6.56 9.116-12.637 14.354-19.113 1.055-.908 1.462-1.638 1.87-2.369 0 0 .12 0 .393-.02.5-.587.726-1.155.953-1.723 21.139-24.389 46.991-41.92 77.264-52.967 2.7-.985 4.147-2.312 5.065-5.269 27.521-88.675 86.405-146.343 174.615-175.303 1.915.144 3.226.205 4.465-.065 7.7-1.68 15.386-3.433 23.076-5.162l.901 1.213-10.027 12.143c1.783 6.333.36 11.462-4.734 16.46-.468.459-.86 1.003-1.24 1.542-2.854 4.047-5.385 8.372-8.615 12.092-4.603 5.302-5.155 8.87-1.28 14.916l-11.54 5.453 2.198 5.185s-.049-.076-.254-.012c-.426.321-.646.578-.866.835 0 0-.37.087-.821.152-.692.317-.934.57-1.175.823 0 0-.37.103-.82.171-.693.317-.935.567-1.177.816 0 0-.379.114-.95.101-1.705.703-2.84 1.417-3.976 2.132 0 0-.014-.093-.333-.112-1.128.61-1.936 1.24-2.745 1.87 0 0-.364.122-.815.19-.694.317-.937.564-1.18.812 0 0-.366.119-.849.22-.73.42-.976.736-1.222 1.052-13.218 9.692-27.16 18.55-39.489 29.263-20.19 17.544-34.901 39.437-46.234 64.344-1.096 1.762-1.59 3.136-2.083 4.509 0 0 .031.338-.348.657a769.416 769.416 0 0 0-9.51 27.829c-.286.89.405 2.092.644 3.15-.977 4.092-1.955 8.184-3.402 12.736-1.115 2.448-1.76 4.436-2.406 6.425 0 0-.042-.118-.369-.056-.776 1.075-1.225 2.087-1.674 3.1-.762.892-1.523 1.785-2.95 2.772-6.595 2.955-12.692 4.74-19.44 4.268-1.452-.102-3.055 1.932-4.588 2.981 0 0-.03-.095-.295-.104-.772.283-1.28.576-1.787.87m172.608-235.87 3.236 3.032 1.142-1.799c-1.305-.573-2.61-1.145-4.378-1.234zM889.092 537.777c1.285 4.898 3.26 9.732 3.718 14.705 1.134 12.343 2.699 24.804 2.113 37.123-3.665 76.993-41.783 131.226-110.68 164.265-21.776 10.442-45.2 15.15-69.688 15.678 2.332-.815 5.005-1.353 7.7-1.516 4.81-.291 5.72-1.939 3.641-6.37-.667-1.422-1.341-3.777-.656-4.716 1.899-2.606 4.52-4.683 6.839-6.985a404.03 404.03 0 0 0 5.755-5.804c.641-.664 1.066-1.569 1.774-2.13 3.355-2.664 7.92-4.182 7.731-9.885-.037-1.146 2.48-3.426 3.767-3.388 6.437.19 8.373-4.954 11.477-8.805 1.246-1.546 2.383-3.73 4.03-4.306 6.007-2.104 6.33-6.923 6.343-11.93.007-2.947.773-4.346 4.093-4.87 5.635-.89 7.507-4.203 6.177-9.322l-4.391.278c6.232-4.634 13.071-8.654 18.537-14.062 6.294-6.227 11.82-13.37 16.903-20.657 20.237-29.004 26.493-61.036 20.228-95.858.787.538 1.404 1.232 1.468 1.974.727 8.384 1.445 16.77 1.997 25.167.224 3.403.037 6.832.037 10.13 7.734.978 8.25.522 7.612-5.946 4.963-.95 7.79-3.932 10.11-8.53 3.62-7.177 7.551-14.505 15.926-18.614 1.296-7.67 2.328-9.323 7.433-11.302 8.467-3.282 9.725-5.084 10.006-14.324m-56.196 89.612.325-1.987-1.712.195c.265.687.53 1.373 1.387 1.792zM717.957 420.863c-.01-.325.113-.588.95-.863 1.723-1.474 2.864-2.873 4.004-4.273.045-.321.215-.55 1.103-.72 1.359-.745 2.124-1.458 2.888-2.17 0 0 .053.09.386.106 1.77-1.01 3.208-2.037 4.645-3.064 0 0 .04.086.382.086 2.421-1.38 4.5-2.76 6.579-4.14 0 0 .056.091.39.111 1.76-1.023 3.186-2.066 4.612-3.108 0 0 .054.09.388.11 1.762-1.021 3.191-2.061 4.62-3.1 0 0 .05.09.384.105 1.765-1.02 3.195-2.054 4.626-3.09 0 0 .049.09.383.1 1.767-1.02 3.2-2.05 4.633-3.079 0 0 .04.087.377.09 1.766-1.028 3.196-2.056 4.626-3.085 0 0 .037.087.375.087 1.769-1.026 3.2-2.053 4.631-3.079 0 0 .035.085.374.081 1.767-1.03 3.195-2.058 4.623-3.085 0 0 .035.086.373.084 1.774-1.019 3.21-2.036 4.647-3.053 0 0 .025.077.318.039.746-.437 1.199-.835 1.652-1.233 9.42-5.718 18.615-11.856 28.314-17.055 14.42-7.73 30.062-3.208 39.408 11.152.166.628.38.822.593 1.016 0 0-.103.127-.113.383.38.72.77 1.183 1.158 1.646 0 0-.101.05-.157.378-.741 1.597-1.106 3.327-2.163 4.056-5.524 3.812-10.66 8.014-15.033 13.13-1.034 1.21-2.17 2.34-3.323 3.441-3.822 3.65-8.028 6.97-11.426 10.977-4.529 5.34-8.232 11.375-12.693 16.778-2.494 3.02-5.662 5.55-8.792 7.955-2.377 1.826-5.303 2.942-3.887 6.913.21.59-.854 1.878-1.604 2.524-2.81 2.42-6.13 4.362-8.534 7.117-4.82 5.525-9.218 11.424-13.689 17.248-4.45 5.798-11.192 9.91-13.219 17.48-1.463 5.464-4.95 9.407-8.505 13.625-5.522 6.551-9.627 14.336-15.391 20.63-2.994 3.268-1.575 6.265-2.443 9.278-.925 3.21-3.544 5.923-5.342 8.901-.184.305.36.982.263 1.42-.26 1.177-.33 2.727-1.106 3.398-2.502 2.163-2.193 4.181-.315 6.415 0 0-.241.244-.718.043-1.01.407-1.542 1.015-2.074 1.622 0 0-.083-.062-.416-.104-1.762.996-3.19 2.035-4.62 3.074 0 0-.063-.09-.395-.103-1.748 1.034-3.163 2.083-4.58 3.132 0 0-.08-.085-.43-.112-6.894 1.425-13.26 4.508-20.228 1.872-2.13-.805-4.397-1.246-6.602-1.854 0 0 .082-.036-.048-.27-.498-.397-.866-.56-1.235-.724-5.83-5.121-9.703-11.215-9.125-19.697 4.185 1.061 6.834.511 7.917-3.914.332-1.357 1.337-2.733 2.399-3.698 5.765-5.24 9.54-11.708 12.136-18.953 0 0 .047.09.37.104 1.111-.662 1.9-1.337 2.688-2.011 0 0 .019.068.309.031.75-.407 1.21-.777 1.67-1.148 0 0-.004.103.332.121 1.766-1.02 3.196-2.06 4.626-3.098 0 0 .054.091.388.105 1.762-1.023 3.191-2.06 4.62-3.095 0 0 .049.09.383.101 1.769-1.016 3.203-2.043 4.638-3.07 0 0 .04.087.376.086 1.771-1.023 3.205-2.044 4.638-3.066 0 0 .032.083.377.075 3.443-2.022 6.54-4.036 9.637-6.05 0 0 .023.073.307.037.756-.383 1.229-.731 1.701-1.08 0 0-.015.082.3.035 2.925-2.796 1.2-3.975-1.419-4.83 0 0 .09-.048.1-.389-2.017-3.77-4.045-7.2-6.072-10.628 0 0 .085-.042.065-.321-.382-.754-.744-1.228-1.106-1.703 0 0 .095.003.109-.34-1.68-3.108-3.372-5.874-5.064-8.64 0 0 .085-.04.063-.32-.389-.752-.755-1.222-1.122-1.692 0 0 .1 0 .117-.346-2.111-7.363-6.208-13.928-4.926-21.729.61-3.707 1.263-7.407 1.896-11.11 0 0 .026.088.27-.05.414-.733.586-1.329.758-1.925 0 0 .037.082.362.04.769-1.053 1.213-2.062 1.658-3.071zM934.098 419.29c-11.813 7.164-23.627 14.328-35.903 21.426-.66.182-.86.428-1.058.675-.447.228-.894.456-1.88.775-.751.396-.964.702-1.176 1.007 0 0-.01-.098-.299-.086-.738.407-1.188.801-1.638 1.196 0 0-.023-.11-.36-.148-1.119.687-1.9 1.413-2.68 2.138.046.25.09.5.13 1.261.302.813.605 1.115.908 1.416 0 0-.086-.003-.07.283.393.75.771 1.211 1.15 1.673 0 0-.101.009-.107.294.381.748.768 1.21 1.155 1.672 0 0-.107.021-.125.307.383.736.784 1.186 1.185 1.636 0 0-.142.084-.18.39.623 1.117 1.284 1.928 1.944 2.74 0 0-.085.036-.053.317.398.745.763 1.209 1.128 1.673 0 0-.09.005-.083.29.385.75.762 1.214 1.14 1.679 0 0-.102.01-.108.295.384.743.774 1.2 1.165 1.658 0 0-.111.034-.151.364.077 1.708.194 3.087.342 4.817-4.114-1.194-6.913-.58-7.977 3.703-.226.907-1.429 1.672-2.324 2.298-5.966 4.165-13.845 6.45-14.714 15.56-.082.86-1.897 1.592-2.951 2.32-2.737 1.887-5.648 3.555-8.21 5.652-3.15 2.577-5.651 6.139-9.097 8.117-4.675 2.684-8.435 5.812-11.414 10.364-1.98 3.024-4.967 5.534-7.897 7.754-4.115 3.116-9.306 4.912-10.85 10.762-.336 1.272-2.325 2.11-3.56 3.14-1.323 1.104-2.951 1.984-3.934 3.335-5.228 7.184-9.87 14.847-15.606 21.587-2.65 3.114-7.326 4.505-11.083 6.678-.535-.167-1.07-.334-1.901-1.038-.92-.71-1.544-.884-2.168-1.058 0 0 .16-.016.09-.176-.34-.13-.607-.098-.874-.067-3.992-3.816-8.633-7.165-11.808-11.57-3.814-5.291-6.38-11.482-9.15-17.752 2.205-2.496 4.452-4.293 5.875-6.598 4.074-6.6 7.567-13.568 11.79-20.064 2.018-3.102 5.156-5.48 7.816-8.156 3.186-3.206 6.448-6.338 9.583-9.593 1.119-1.162 2.034-2.544 2.915-3.907 3.807-5.89 6.52-13.066 11.654-17.35 4.623-3.857 9.824-6.635 13.308-12.055 2.3-3.578 5.651-6.83 10.016-8.597 1.156-.468 1.632-2.428 2.628-3.513a824.311 824.311 0 0 1 12.235-13.01c.412-.43 1.216-.773 1.791-.713 3.781.4 4.02-2.307 4.9-4.92.64-1.899 1.932-3.998 3.552-5.076 7.566-5.035 17.913-6.437 21.392-16.734.137-.408.676-.698 1.062-1 2.363-1.847 4.654-3.801 7.13-5.483 2.141-1.453 4.506-2.575 6.755-3.874 2.162-1.248 4.3-2.54 6.453-3.804 2.198-1.292 4.68-3.975 6.551-3.602 5.946 1.183 9.189-2.476 12.247-5.96 2.361-2.69 3.573-6.389 5.698-9.638 4.182.964 7.961 1.928 11.74 2.892 0 0-.117.06-.083.37 1.737 1.733 3.44 3.157 5.142 4.582 0 0-.102.143-.1.39.369.729.738 1.21 1.106 1.69 0 0-.123.02-.037.22.382.397.677.594.971.791 0 0-.093.029-.096.424 1.822 7.94.966 15.373-.948 22.76 0 0-.057-.105-.368-.052-.64.79-.969 1.53-1.298 2.268 0 0-.093.02-.396.022-.53.578-.756 1.154-.982 1.73-.05.345-.22.612-1.117.87-2.352 1.433-4.101 2.796-5.85 4.16 0 0-.071-.087-.35-.053-.73.43-1.181.828-1.633 1.225zM195.096 699.711c8.654 2.857 17.238 5.964 25.998 8.448 3.517.997 7.422.627 11.654 1.361 2.368.82 4.234 1.445 6.1 1.449 33.717.072 67.434.07 101.16.451.06.696.037 1.058.173 1.345.887 1.877 5.7 1.832 2.965 5.347-1.54 1.978-3.926 3.316-5.996 4.855-.883.657-2.64.94-2.793 1.651-1.181 5.49-5.18 6.799-9.484 6.67-.926 2.42-1.503 5.747-2.34 5.814-4.471.356-6.523 3.66-9.392 6.178-3.05 2.676-6.569 4.85-10.011 7.04-5.631 3.586-11.006 8.086-17.175 10.144-4.581 1.528-5.625 3.708-6.421 7.537-9.075.001-17.684.129-26.287-.036-7.905-.151-15.803-.665-23.708-.926-4.495-.149-8.995-.11-13.494-.155-28.144-4.72-53.676-15.66-76.635-32.558 5.455.068 10.647-.492 15.875-.857 9.647-.672 16.166-7.314 24.597-9.887 1.86-.568 3.69-1.252 5.499-1.973 1.006-.401 2.176-.774 2.86-1.532a220.392 220.392 0 0 0 8.598-10.12c.482-.603.54-1.81.352-2.637-.584-2.562-1.38-5.076-2.095-7.609z"/><path fill="red" d="M927.995 374.999c-1.723 3.25-2.935 6.949-5.296 9.64-3.058 3.483-6.3 7.142-12.247 5.959-1.87-.373-4.353 2.31-6.55 3.602-2.154 1.265-4.292 2.556-6.454 3.804-2.249 1.299-4.614 2.42-6.755 3.874-2.476 1.682-4.767 3.636-7.13 5.483-.386.302-.925.592-1.062 1-3.48 10.297-13.826 11.699-21.392 16.734-1.62 1.078-2.912 3.177-3.552 5.077-.88 2.612-1.119 5.32-4.9 4.92-.575-.061-1.379.282-1.791.712a824.311 824.311 0 0 0-12.235 13.01c-.996 1.085-1.472 3.045-2.628 3.513-4.365 1.767-7.716 5.02-10.016 8.597-3.484 5.42-8.685 8.198-13.308 12.056-5.134 4.283-7.847 11.458-11.654 17.349-.88 1.363-1.796 2.745-2.915 3.907-3.135 3.255-6.397 6.387-9.583 9.593-2.66 2.676-5.798 5.054-7.815 8.156-4.224 6.496-7.717 13.463-11.791 20.064-1.423 2.305-3.67 4.102-5.933 6.247-.393.116-.378.066-.355-.24-.267-.517-.557-.73-.847-.943 0 0 .105-.034.105-.318-.4-.734-.8-1.183-1.199-1.632 0 0 .122-.055.166-.382-.968-1.784-1.98-3.242-2.99-4.7 0 0 .098-.016.06-.304-.965-.008-1.893.271-2.821.55-10.539 6.347-21.077 12.693-31.898 19.12-2.16-2.155-2.469-4.173.033-6.336.777-.67.847-2.22 1.106-3.398.096-.438-.447-1.115-.263-1.42 1.798-2.978 4.417-5.692 5.342-8.901.868-3.013-.551-6.01 2.443-9.279 5.764-6.293 9.869-14.078 15.391-20.63 3.555-4.217 7.042-8.16 8.505-13.624 2.027-7.57 8.769-11.682 13.22-17.48 4.47-5.824 8.868-11.723 13.688-17.248 2.404-2.755 5.723-4.697 8.534-7.117.75-.646 1.815-1.934 1.604-2.524-1.416-3.971 1.51-5.087 3.887-6.913 3.13-2.405 6.298-4.935 8.792-7.955 4.461-5.403 8.164-11.438 12.693-16.778 3.398-4.007 7.604-7.326 11.426-10.977 1.153-1.1 2.289-2.231 3.323-3.441 4.372-5.116 9.51-9.318 15.033-13.13 1.057-.729 1.422-2.46 2.177-4.11 2.697 4.345 5.324 9.073 8.031 14.438.388.856.694 1.077 1 1.297 0 0-.096.009-.087.295.386.753.762 1.221 1.138 1.69 0 0-.1.01-.108.296.383.744.773 1.204 1.163 1.663 0 0-.097.053-.155.39.69 2.31 1.151 4.465 2.263 6.205 1.14 1.786 2.828 2.623 3.561-.54 0 0 .04.077.325.04.742-.409 1.2-.78 1.657-1.15 0 0 .002.096.329.115 1.116-.651 1.905-1.322 2.695-1.993 0 0 .034.07.321.03.745-.41 1.201-.78 1.658-1.15 0 0 0 .098.34.117 1.763-1.02 3.187-2.062 4.611-3.103 0 0 .078.097.391.11 1.103-.657 1.893-1.328 2.683-1.998 0 0 .03.066.318.026.749-.402 1.208-.764 1.668-1.126 0 0-.002.088.328.101 1.13-.662 1.929-1.338 2.728-2.013 0 0 .183-.143.61-.141.734-.308 1.04-.618 1.345-.927 0 0-.01.084.334.09 1.768-1.027 3.192-2.06 4.615-3.094 0 0 .07.094.399.098 1.753-1.03 3.177-2.063 4.602-3.096 0 0 .07.093.4.097 1.747-1.038 3.165-2.08 4.584-3.12 0 0 .073.097.387.107 1.104-.657 1.895-1.325 2.686-1.994 0 0 .027.06.319.019.746-.408 1.2-.774 1.655-1.141 0 0 0 .09.332.11 1.37-.763 2.408-1.544 3.446-2.326 0 0 .05.017.467.148 5.215-.498 10.014-1.128 14.813-1.757zM778.855 689.81c1.443-.104 2.907-.196 4.371-.289 1.33 5.12-.542 8.432-6.177 9.322-3.32.524-4.086 1.923-4.093 4.87-.012 5.007-.336 9.826-6.343 11.93-1.647.577-2.784 2.76-4.03 4.306-3.104 3.85-5.04 8.994-11.477 8.805-1.287-.038-3.804 2.242-3.767 3.388.188 5.703-4.376 7.22-7.731 9.884-.708.562-1.133 1.467-1.774 2.13a404.03 404.03 0 0 1-5.755 5.805c-2.32 2.302-4.94 4.38-6.84 6.985-.684.94-.01 3.294.657 4.715 2.08 4.432 1.169 6.08-3.64 6.37-2.696.164-5.369.702-8.152 1.454-1.26.442-2.421.553-3.582.553-71.193-.004-142.385-.016-213.945-.476 1.14-.818 2.645-1.492 4.157-1.508 9.422-.101 18.846-.056 28.737-.056 29.908.002 59.349-.04 88.788.053 3.744.012 6.212-.574 5.826-5.115-.096-1.134.48-2.812 1.337-3.46 6.27-4.746 12.232-9.486 17.108-16.026 4.564-6.124 11.668-10.292 17.214-15.767 4.004-3.952 7.287-8.636 10.895-13-1.547-1.213-3.1-2.422-4.183-3.646 17.165-.024 33.862.02 50.557-.119 1.653-.014 3.296-1.14 4.944-1.75 2.433-.37 4.866-.74 7.978-.814 9.588-1.937 18.5-4.159 27.394-6.45.27-.07.353-.861.524-1.316.135-.311.37-.495 1.157-.286 1.984-.099 3.6-.262 5.026-.873 2.737-1.173 5.32-3.574 8.05-3.7 4.352-.203 5.165-3.247 6.766-5.93 0 0 .023.021.003.01zM789.107 570.607c3.507-2.472 8.183-3.863 10.833-6.977 5.736-6.74 10.378-14.403 15.606-21.587.983-1.351 2.61-2.231 3.935-3.336 1.234-1.03 3.223-1.867 3.558-3.139 1.545-5.85 6.736-7.646 10.85-10.762 2.931-2.22 5.919-4.73 7.898-7.754 2.979-4.552 6.739-7.68 11.414-10.364 3.446-1.978 5.946-5.54 9.096-8.117 2.563-2.097 5.474-3.765 8.21-5.653 1.055-.727 2.87-1.458 2.952-2.32.869-9.11 8.748-11.394 14.714-15.56.895-.625 2.098-1.39 2.324-2.297 1.064-4.283 3.863-4.897 7.977-3.703-.148-1.73-.265-3.109-.318-4.87a62.393 62.393 0 0 1 5.513 9.697c1.053 2.366 2.28 4.19 3.507 6.014 0 0-.102.094-.09.357.38.735.75 1.208 1.12 1.68 0 0-.094.013-.122.357.617 1.47 1.262 2.597 1.907 3.724 0 0 .115.36.084.985 1.419 7.659 2.083 14.684-.03 21.728-.222.74.046 1.625.087 2.442 0 0-.027-.09-.275.054-.407.746-.566 1.35-.725 1.952 0 0-.046-.088-.26.025-.308.455-.401.798-.495 1.141 0 0 .058-.157-.284-.043-.531.715-.72 1.316-.91 1.918 0 0-.065-.098-.283 0-.353.438-.49.776-.626 1.115 0 0-.078-.166-.303-.073-.351.434-.478.777-.605 1.119-.122-.117-.244-.234-.48-.18-.236.513-.36.854-.482 1.195 0 0-.172-.388-.4-.202a5.298 5.298 0 0 0-.639 1.199s-.099.033-.417-.061c-1.166.877-2.014 1.849-2.862 2.82 0 0-.06-.1-.4-.094-4.107 2.034-7.875 4.06-11.642 6.087 0 0-.031.45-.331.91.237 2.633.775 4.805 1.313 6.977 0 0 .057.38.062.574-.277 9.432-1.535 11.234-10.002 14.516-5.105 1.979-6.137 3.633-7.433 11.302-8.375 4.109-12.307 11.437-15.927 18.615-2.318 4.597-5.146 7.58-10.109 8.53.638 6.467.122 6.923-7.612 5.944 0-3.297.187-6.726-.037-10.13-.552-8.396-1.27-16.782-1.997-25.166-.064-.742-.681-1.436-1.465-2.35-4.613 2.025-9.022 3.92-12.949 6.536-9.982 6.651-20.776 7.712-32.45 5.225z"/><path fill="red" d="M529.002 767.995c-9.422.003-18.846-.042-28.268.059-1.512.016-3.016.69-4.621 1.447-1.176.43-2.254.473-3.827.055-2.177-.825-3.86-1.503-5.544-1.509-20.915-.075-41.83-.052-62.744-.489-.557-4.616.14-8.462 3.782-11.025 3.835-2.698 8.047-4.872 11.794-7.675 3.037-2.272 5.678-5.087 8.39-7.767.868-.858 1.243-2.217 2.116-3.066 5-4.86 10.043-9.679 15.166-14.408 1.278-1.18 2.821-2.62 4.394-2.836 5.901-.808 7.763-5.585 10.82-9.736 31.49-.004 62.511.005 93.598.36.356 2.014 1.477 4.602.807 5.205-5.787 5.217-12.46 9.557-17.715 15.226-3.565 3.846-7.649 6.393-11.822 9.173-1.697 1.13-3.13 3.014-4.062 4.868-2.274 4.524-3.561 9.455-9.777 10.837-1.568.349-2.555 4.45-3.276 6.978-.359 1.257.488 2.858.79 4.303zM194.937 699.5c.873 2.744 1.67 5.258 2.254 7.82.188.827.13 2.034-.352 2.637a220.392 220.392 0 0 1-8.598 10.12c-.684.758-1.854 1.131-2.86 1.532-1.808.721-3.638 1.405-5.5 1.973-8.43 2.573-14.95 9.215-24.596 9.887-5.228.365-10.42.925-16.074.58-.69.01-.944-.098-1.25-.88-1.09-1.076-2.084-1.58-3.08-2.084 0 0 .076-.046-.034-.254a4.75 4.75 0 0 0-1.053-.708s.099.021.077-.307c-.755-.662-1.488-.996-2.222-1.33 0 0 .004-.054-.02-.41-.62-.573-1.215-.79-1.81-1.005-.304-.016-.554-.14-.92-.85-.496-.672-.823-.864-1.15-1.057 0 0 .091.06.084-.283-.733-.708-1.459-1.074-2.184-1.44 0 0-.006-.067-.015-.394-.587-.553-1.164-.78-1.741-1.007-14.355-12.407-26.2-26.903-35.578-43.559 3.404-1.797 6.603-2.94 9.47-4.643 6.373-3.782 13.025-7.3 18.723-11.954 5.161-4.215 9.951-9.19 11.77-16.208.537-2.07 2.422-3.79 3.845-5.35a646.189 646.189 0 0 0 6.188 8.724c9.914 14.447 21 27.802 35.713 38.636.888.811 1.48 1.045 2.07 1.278.316 0 .583.114.993.817.529.633.867.789 1.206.945 0 0-.11-.045-.01.255.707.475 1.311.65 1.916.824 0 0-.093.048.024.298.7.445 1.284.641 1.867.837 0 0-.067.047.059.252.451.339.778.472 1.104.605 0 0-.092-.061-.066.114.288.145.55.116.812.086.323-.028.608.064 1.11.792.896.712 1.538.907 2.18 1.102.491.157.982.314 1.76.978.883.684 1.478.862 2.073 1.04 0 0-.077.034.09.28.794.403 1.422.559 2.05.714.505.129 1.01.257 1.675.597z"/><path fill="red" d="M131.967 640.005c-1.267 1.88-3.152 3.601-3.689 5.671-1.819 7.019-6.609 11.993-11.77 16.208-5.698 4.653-12.35 8.172-18.723 11.954-2.867 1.702-6.066 2.846-9.542 4.303-.427.06-.407.041-.388-.319-.44-.808-.9-1.255-1.36-1.703-.224-.354-.45-.709-.697-1.609-.321-.854-.619-1.163-.916-1.472 0 0 .083-.001.057-.305-.421-.811-.815-1.32-1.209-1.827-9.477-16.201-15.15-33.804-18.68-52.103-1.524-7.905-2.1-15.993-2.761-24.704.482-2.834.619-4.963.756-7.092 1.165 1.024 2.38 1.997 3.48 3.087.8.794 1.272 2.103 2.197 2.557 3.447 1.691 12.766-5.067 12.707-8.995-.016-1.065.5-2.139.943-3.883 5.604 4.891 9.181 1.453 13.477-1.815 5.968-4.54 12.708-8.056 18.968-12.235 1.738-1.16 2.947-3.115 4.787-4.296.415 1.524.442 2.638.47 3.753-.014.412-.027.825-.373 1.836-.784 4.614-1.437 8.622-1.58 12.648-.05 1.42 1.145 2.885 1.772 4.329.051.756.103 1.513-.179 2.94-.11 5.887-.427 11.2.475 16.296 1.067 6.027 3.186 11.868 4.837 18.185 2.305 6.461 4.623 12.526 6.941 18.59zM602.182 272.931c.304.017.553.142.917.854.495.672.82.865 1.146 1.06 0 0-.096-.055-.084.285.74.686 1.47 1.031 2.199 1.376 0 0-.008.053.01.408.597.583 1.177.81 1.758 1.039 1.245 1.032 2.49 2.064 3.753 3.695-1.401 2.957-4.951 4.423-3.108 8.192.154.315-.616 1.067-.933 1.63-1.626 2.885-3.027 5.928-4.922 8.625-2.333 3.32-4.87 6.573-7.81 9.33-.61.571-3.341-1.308-5.167-1.766-.967-.243-2.415-.215-3.037.355-.48.44.04 1.916.024 2.93-.022 1.272.35 3.269-.291 3.7-4.609 3.1-8.093 8.611-14.84 7.433-.297-.022-.54-.148-.93-.872-.57-.69-.943-.883-1.317-1.076 0 0-.286.047-.56-.261-.607-.46-.941-.61-1.275-.762-1.058-.935-2.115-1.87-3.576-3.19-.715-.576-1.026-.768-1.337-.96-18.268-13.593-37.579-25.249-59.532-32.664 4.054-1.821 8.16-3.03 12.243-4.31 2.877-.901 4.055-2.91 5.136-5.832 2.682-7.245 6.3-14.138 9.328-21.263 1.1-2.59 1.9-5.396 2.278-8.18.386-2.832.086-5.757.086-9.273l-10.343-5.452c12.15 5.142 24.885 9.247 36.305 15.685 14.676 8.273 28.298 18.418 42.4 28.191.51.647.994.86 1.48 1.073z"/><path fill="red" d="M571.978 322.37c6.566.885 10.05-4.626 14.659-7.726.64-.431.27-2.428.29-3.7.018-1.014-.503-2.49-.023-2.93.622-.57 2.07-.598 3.037-.355 1.826.458 4.556 2.337 5.167 1.765 2.94-2.756 5.477-6.01 7.81-9.33 1.895-2.696 3.296-5.739 4.922-8.624.317-.563 1.087-1.315.933-1.63-1.843-3.77 1.707-5.235 3.271-7.935 19.563 16.656 35.642 36.436 48.822 58.75-1.467.836-2.665 1.33-4.412 2.048 3.995 3.841 5.34 6.765 1.65 11.193-2.01 2.413-3.834 5.053-5.862 7.556-4.293 5.298-8.763 11.489-10.049 17.934-1.796 9.004-7.855 13.053-14.312 17.324-.865-.729-1.577-1.167-2.29-1.606-8.372-20.786-21.008-38.835-35.974-55.299-5.477-6.025-11.62-11.445-17.639-17.435z"/><path fill="red" d="M628.033 397c6.305-4.56 12.364-8.61 14.16-17.614 1.286-6.445 5.756-12.636 10.049-17.934 2.028-2.503 3.852-5.143 5.862-7.556 3.69-4.428 2.345-7.352-1.65-11.193 1.747-.719 2.945-1.212 4.539-1.709 2.285 3.355 4.174 6.713 6.051 10.808.692 1.529 1.397 2.322 2.102 3.116 0 0-.083.046-.073.325.372.757.735 1.234 1.097 1.71 0 0-.1 0-.093.28.367.76.727 1.242 1.086 1.724 0 0-.097 0-.088.279.366.76.725 1.242 1.083 1.723 0 0-.095 0-.085.28.368.76.726 1.24 1.084 1.72 0 0-.092 0-.107.362 1.57 4.656 2.98 9.027 4.8 13.22 1.265 2.918 3.091 5.592 4.667 8.375 6.407 17.865 11.582 35.988 11.1 55.717-1.449 3.527-2.459 6.537-3.47 9.547 0 0-.032-.098-.26-.008-.373.43-.518.77-.663 1.11 0 0-.039-.135-.297-.032-.464.71-.668 1.316-.873 1.922-.774.894-1.548 1.788-2.942 2.79-1.046.532-1.472.957-1.899 1.383 0 0 .062-.123-.31-.154-9.66 4.471-19.068 5.772-28.736 1.108-.224-.109-.766.44-1.16.684-7.547-3.975-11.263-10.648-13.179-18.621-.458-1.907-1.125-3.763-1.437-6.277.223-1.757.435-2.957.113-3.99-3.442-11.047-6.968-22.067-10.471-33.095zM358.507 287.167c-1.079-1.63-1.77-3.263-2.583-5.181l11.54-5.453c-3.876-6.046-3.324-9.614 1.28-14.916 3.229-3.72 5.76-8.045 8.614-12.092.38-.539.772-1.083 1.24-1.542 5.095-4.998 6.517-10.127 4.734-16.46l10.027-12.143-.9-1.213c-7.691 1.729-15.376 3.482-23.077 5.162-1.24.27-2.55.209-4.088.044a1605.232 1605.232 0 0 1 45.49-9.377c3.733-.713 7.606-.693 11.929-.797.514.212.942.285.942.285l.268-.397c.482-.048.963-.097 2.09.21 8.134.446 15.62.537 23.107.629.443.019.886.038 1.928.391 2.717.471 4.836.608 6.956 1.125a86.876 86.876 0 0 0 2.31 5.23c-2.262 4.892-6.378 9.488-5.69 13.191 1.474 7.924-2.86 12.516-7.297 16.68-5.864 5.505-9.102 12.037-11.79 19.427-3.627.026-6.806-.153-9.945.12-1.543.135-3.013 1.108-4.516 1.702-21.544 1.823-42.103 7.63-62.57 15.375z"/><path fill="red" d="M436.004 269.951c2.221-7.37 5.46-13.903 11.323-19.407 4.437-4.165 8.77-8.757 7.298-16.68-.689-3.704 3.427-8.3 5.69-13.192-.437-.917-1.374-2.883-1.898-5.203 4.52-.085 8.626.185 12.732.455 0 0 .443 0 .855.3 1.586.144 2.762-.012 3.937-.169 10.856 2.352 21.71 4.704 32.984 7.62 3.509 1.431 6.6 2.297 9.691 3.163 0 0 .105-.157.381.17.931.518 1.587.708 2.242.898 0 0 .383-.001.571.037 4.02 2.06 7.853 4.08 10.53 5.491 0 3.516.301 6.441-.085 9.274-.379 2.783-1.178 5.59-2.278 8.18-3.028 7.124-6.646 14.017-9.328 21.262-1.081 2.922-2.26 4.93-5.136 5.832-4.083 1.28-8.189 2.489-12.475 4.021-1.658-.165-3.126-.623-4.977-1.63-1.836-1.278-3.218-2.386-4.753-2.674-14.087-2.64-28.2-5.137-42.773-7.681-5.154-.026-9.843-.047-14.531-.067zM423.997 767.993c20.915.002 41.83-.02 62.745.054 1.685.006 3.367.684 5.145 1.436-36.064.434-72.223.504-108.383.521-45.66.021-91.322.168-136.98-.139-9.895-.066-19.778-1.832-30.073-2.898 4.093-.037 8.593-.077 13.088.072 7.905.26 15.803.775 23.708.926 8.603.165 17.212.037 26.755.038l143.995-.01zM573.992 711.059c-31.02-.01-62.042-.018-94-.03L340 711.053c-33.717-.013-67.434-.01-101.15-.083-1.867-.004-3.733-.63-5.705-1.343 36.356-.167 72.817.202 109.278.223 120.249.071 240.497.027 360.746-.023 5.984-.003 11.968-.473 18.37-.692-1.229.644-2.872 1.77-4.525 1.784-16.695.139-33.392.095-51.024.101l-91.997.04zM694.563 509.918c-2.251 7.167-6.026 13.636-11.791 18.875-1.062.965-2.067 2.34-2.399 3.698-1.083 4.425-3.732 4.975-7.827 3.501-.57-8.863 4.028-15.036 10.954-19.733 3.417-2.317 7.135-4.19 11.063-6.341z"/><path fill="red" d="M451.002 270.023c14.105 2.54 28.219 5.037 42.306 7.676 1.535.288 2.917 1.396 4.477 2.495-14.99-3.85-30.165-7.655-46.37-8.536-.416-.798-.415-1.217-.413-1.635zM627.88 396.71c3.656 11.318 7.182 22.338 10.624 33.384.322 1.034.11 2.234-.117 3.61-4.372-12.449-8.48-25.15-12.692-38.225.61.064 1.321.502 2.186 1.23zM714.63 426.097c-.354 3.475-1.007 7.175-1.617 10.882-1.282 7.801 2.815 14.366 4.911 21.777-6.792-9.947-9.45-20.729-3.295-32.66zM125.038 621.018c-1.663-5.921-3.782-11.762-4.849-17.789-.902-5.096-.585-10.41-.522-15.919 2.228 10.797 4.171 21.887 5.937 33.352-.176.376-.566.356-.566.356zM653.284 459.2c.117-.46.659-1.01.883-.901 9.668 4.664 19.075 3.363 28.745-1.04-9.07 7.424-19.034 7.34-29.628 1.941zM125.026 621.414c.012-.396.402-.376.597-.365 4.287 9.104 8.38 18.197 12.58 27.646-1.903-2.445-3.913-5.246-6.08-8.368-2.474-6.387-4.792-12.452-7.097-18.913zM244.034 425.612c-.355-.697-1.046-1.9-.76-2.79a761.456 761.456 0 0 1 9.455-27.667c-2.644 9.926-5.611 20.012-8.695 30.457zM928.397 375c-5.201.628-10 1.258-15.21 1.782 8.72-5.719 17.697-4.982 26.756.822-3.585-.676-7.364-1.64-11.546-2.604zM683.071 557.38c1.998.324 4.265.765 6.395 1.57 6.967 2.636 13.333-.447 20.285-1.862-8.441 5.772-17.41 5.507-26.68.292zM757.472 700.68c.21.363.127 1.154-.143 1.224-8.894 2.291-17.806 4.513-26.989 6.478 8.735-2.715 17.743-5.162 27.132-7.702zM778.511 689.883c-1.26 2.599-2.073 5.643-6.426 5.845-2.729.127-5.312 2.528-8.05 3.701-1.424.611-3.041.774-4.793.88 6.162-3.622 12.545-6.982 19.27-10.426zM209.504 458.144c1.118-.994 2.72-3.028 4.174-2.926 6.747.472 12.844-1.313 19.165-4.15-4.118 4.364-9.654 5.849-15.748 6.031-2.4.072-4.784.644-7.59 1.045zM946.373 408.899c1.633-7.167 2.489-14.6.69-22.582 4.623 7.253 3.63 14.836-.69 22.582zM682.401 384.538c-1.46-2.405-3.286-5.079-4.551-7.997-1.82-4.193-3.23-8.564-4.789-13.265 3.093 6.691 6.158 13.788 9.34 21.262zM910.404 510.902c-.313-.567-.58-1.453-.36-2.192 2.114-7.044 1.45-14.069.03-21.539 4.039 7.444 3.942 15.424.33 23.731z"/><path fill="red" d="M450.535 270.018c.465.423.464.842.44 1.573-9.705.302-19.387.291-29.484.24 1.088-.633 2.558-1.606 4.101-1.74 3.14-.274 6.318-.095 9.946-.12 5.154 0 9.843.02 14.997.047zM470.915 215.601c-3.872.053-7.978-.217-12.498-.513-2.533-.163-4.652-.3-7.044-.702 6.255.12 12.781.506 19.542 1.215zM119.95 583.535c-.684-.986-1.88-2.45-1.83-3.87.144-4.027.797-8.035 1.528-12.344.306 5.056.332 10.405.302 16.214zM63.025 586.539c-.117 2.597-.254 4.726-.672 7.116-.315-8.042-.35-16.345-.323-25.103.366 5.535.67 11.527.995 17.987zM888.385 528.986c3.426-1.888 7.194-3.915 11.35-5.917-3.41 1.943-7.209 3.86-11.35 5.917zM448.869 213.57c-7.236.264-14.722.173-22.497-.208a263.214 263.214 0 0 1 22.497.207zM724.948 472.42a142.647 142.647 0 0 1 5.985 10.326c-1.989-3.066-3.952-6.52-5.985-10.326zM729.618 489.007a122.578 122.578 0 0 1-9.333 5.947c2.741-1.965 5.866-3.915 9.333-5.947zM866.582 403.984c-.366 3.099-2.053 2.262-3.194.476-1.112-1.74-1.574-3.894-2.265-6.26 1.734 1.687 3.412 3.767 5.459 5.784zM718.954 461.414a92.786 92.786 0 0 1 4.976 8.337c-1.653-2.404-3.278-5.197-4.976-8.337zM122.399 554.002c.512-3.393 1.341-6.992 2.514-10.748-.503 3.41-1.35 6.976-2.514 10.748zM690.44 449.988a56.585 56.585 0 0 1 3.09-8.906c-.698 2.86-1.748 5.787-3.09 8.906zM518.369 226.529a55.117 55.117 0 0 1-9.144-2.657c2.887.538 5.892 1.443 9.144 2.657zM945.081 382.536a33.362 33.362 0 0 1-4.984-4.325c1.629 1.099 3.25 2.558 4.984 4.325zM738.555 405.9a53.573 53.573 0 0 1-6.284 4.046c1.725-1.337 3.835-2.655 6.284-4.046zM907.117 479.543c-1.168-1.488-2.395-3.312-3.373-5.336 1.271 1.532 2.293 3.266 3.373 5.336zM936.41 418.041c1.42-1.288 3.169-2.651 5.29-4.007-1.406 1.316-3.183 2.623-5.29 4.007zM889.178 536.74a28.594 28.594 0 0 1-1.506-6.484c.727 1.911 1.192 4.062 1.506 6.484zM238.377 444.922c.378-1.777 1.024-3.765 2.007-5.835-.355 1.821-1.048 3.722-2.007 5.835zM730.924 483.453c2.543.489 4.269 1.668 1.307 4.449-.647-1.34-.94-2.712-1.307-4.449zM722.608 415.864a22.366 22.366 0 0 1-3.491 4.057c.814-1.31 2.001-2.615 3.491-4.057zM758.602 393.945c-1.105.958-2.538 1.988-4.353 2.99 1.087-.991 2.556-1.956 4.353-2.99zM704.575 503.91c-1.102.968-2.532 2.007-4.347 3.01 1.083-1.003 2.55-1.972 4.347-3.01zM709.584 500.922c-1.102.963-2.531 2-4.344 3.006 1.083-.998 2.55-1.965 4.344-3.006zM714.604 497.949c-1.107.958-2.541 1.985-4.359 2.984 1.089-.99 2.56-1.952 4.359-2.984zM719.62 494.973c-1.107.949-2.541 1.97-4.355 2.972 1.09-.98 2.558-1.94 4.355-2.972zM757.926 530.414c.953 1.125 1.964 2.583 2.901 4.426-.997-1.107-1.92-2.6-2.901-4.426zM778.629 381.988c-1.11.943-2.546 1.96-4.362 2.96 1.092-.975 2.564-1.931 4.362-2.96zM903.564 381.906c-1.093.967-2.51 2.009-4.312 3.022 1.074-1 2.53-1.974 4.312-3.022zM715.429 554.094c1.1-.972 2.528-2.01 4.34-3.014-1.08 1.006-2.546 1.976-4.34 3.014zM710.45 557.115c1.09-.974 2.506-2.023 4.307-3.041-1.071 1.009-2.526 1.988-4.307 3.04zM773.611 384.961c-1.103.949-2.531 1.976-4.34 2.987 1.085-.98 2.55-1.944 4.34-2.987zM898.58 384.929c-1.099.96-2.523 1.994-4.33 3 1.08-.995 2.542-1.961 4.33-3zM768.612 387.96c-1.104.953-2.535 1.98-4.347 2.986 1.086-.985 2.553-1.95 4.347-2.986zM893.58 387.927c-1.098.96-2.522 1.994-4.327 3.002 1.078-.994 2.54-1.962 4.326-3.002zM731.605 409.95c-1.11.956-2.547 1.982-4.367 2.978 1.091-.99 2.565-1.948 4.367-2.978zM763.606 390.951c-1.103.957-2.533 1.985-4.343 2.993 1.084-.987 2.55-1.954 4.343-2.993zM743.569 402.902c-1.1.968-2.526 2.011-4.337 3.02 1.08-1.004 2.545-1.975 4.337-3.02zM878.559 396.9c-1.098.967-2.522 2.008-4.33 3.012 1.077-1.004 2.54-1.971 4.33-3.012zM753.587 396.929c-1.104.96-2.534 1.995-4.348 3 1.084-.996 2.552-1.96 4.348-3zM748.574 399.904c-1.099.973-2.528 2.013-4.341 3.02 1.08-1.007 2.546-1.98 4.341-3.02zM475.659 215.972c-.893.24-2.069.396-3.436.284.923-.301 2.038-.334 3.436-.284zM120.361 565.013c-.315-.948-.342-2.062-.38-3.594.108-.741.306-1.004.81-1.312.103 1.509-.02 3.124-.43 4.906zM900.387 523.045c.547-.885 1.395-1.857 2.608-2.71-.526.953-1.416 1.788-2.608 2.71zM253.433 394.136c.192-1.172.686-2.546 1.544-4.079-.172 1.186-.707 2.532-1.544 4.079zM348.425 292.14c.792-.666 1.928-1.38 3.437-2.072-.783.69-1.938 1.357-3.437 2.072zM912.394 376.66c-.717.73-1.755 1.511-3.167 2.258.699-.758 1.773-1.482 3.167-2.257zM910.015 485.66c-.67-.79-1.314-1.917-1.915-3.432.675.773 1.307 1.934 1.915 3.432zM881.653 395.003c-.484.605-1.274 1.276-2.435 1.911.462-.638 1.295-1.241 2.435-1.91zM906.657 380.015c-.485.6-1.276 1.268-2.437 1.902.463-.634 1.297-1.234 2.437-1.902zM755.457 530.23c.578-.182 1.506-.461 2.442-.413-.693.324-1.393.32-2.442.413zM886.69 391.991c-.488.61-1.287 1.286-2.457 1.932.468-.641 1.308-1.254 2.458-1.932zM895.044 457.633c-.61-.5-1.271-1.31-1.85-2.498.654.478 1.227 1.332 1.85 2.498zM135.048 731.357c.829.232 1.824.736 2.82 1.622-.883-.195-1.768-.773-2.82-1.622zM669.095 354.594c-.654-.47-1.359-1.263-2.043-2.437.677.451 1.335 1.282 2.043 2.437zM697.659 508.001c-.482.606-1.27 1.281-2.43 1.927.46-.638 1.292-1.249 2.43-1.927zM345.323 293.952c.49-.635 1.298-1.265 2.47-1.86-.475.646-1.312 1.256-2.47 1.86zM236.333 448.002c.183-.837.632-1.85 1.453-2.88-.148.888-.667 1.796-1.453 2.88zM889.404 446.164c.48-.616 1.261-1.342 2.43-2.004-.452.674-1.292 1.285-2.43 2.004zM726.597 412.915c-.46.634-1.224 1.347-2.365 2.05.436-.664 1.247-1.318 2.365-2.05zM871.649 400.999c-.484.604-1.273 1.275-2.435 1.91.462-.639 1.295-1.241 2.435-1.91zM717.7 421.048c-.188.824-.632 1.833-1.443 2.868.151-.877.668-1.78 1.443-2.868zM121.403 558.989c-.203-1.022-.085-2.257.313-3.739.19 1.012.1 2.269-.313 3.739zM944.677 411.193c.078-.596.407-1.335 1.094-2.09-.042.64-.442 1.294-1.094 2.09zM131.778 728.74c.605.08 1.338.414 2.062 1.115-.651-.042-1.292-.451-2.062-1.115zM125.77 723.7c.604.107 1.33.473 2.016 1.21-.658-.07-1.277-.51-2.016-1.21zM106.354 458.804c-.135.603-.542 1.333-1.322 2.066.101-.645.575-1.291 1.322-2.066zM606.236 276.252c-.605-.091-1.335-.436-2.03-1.154.658.052 1.282.476 2.03 1.154z"/><path fill="#4A6BD6" d="M720.407 551.137c.26-.553.793-1.16 1.632-1.54-.248.648-.805 1.067-1.632 1.54z"/><path fill="red" d="M125.472 542.984c-.154-.727-.02-1.65.435-2.741.164.737.008 1.641-.435 2.741zM180.045 691.55c-.45.08-1.055-.094-1.712-.603.484-.107 1.022.121 1.712.603zM126.43 540.002c-.154-.432-.039-1.036.337-1.82.15.43.042 1.04-.337 1.82zM784.962 568.474c.45-.088 1.074.085 1.813.58-.47.109-1.055-.105-1.813-.58zM909.383 512.98c-.092-.425.067-1.028.52-1.769.108.438-.08 1.014-.52 1.769zM521.053 227.614c-.47.102-1.125-.088-1.964-.584.47-.106 1.124.093 1.964.584zM193.045 698.671c-.41.077-1.04-.079-1.835-.523.427-.096 1.022.098 1.835.523zM190.933 697.67c-.406.06-1-.117-1.734-.585.423-.078.983.135 1.734.586zM602.05 272.712c-.353.006-.837-.207-1.155-.58.451.014.736.187 1.154.58zM607.98 277.696c-.433.029-1.013-.199-1.623-.759.472-.053.974.225 1.623.76zM907.439 516.052c-.066-.455.123-1.056.653-1.687.094.493-.152 1.017-.653 1.687zM129.983 727.321c.431-.034 1.027.182 1.664.734-.472.062-.986-.21-1.664-.734zM723.881 470.347c.317.174.679.648 1.043 1.446-.33-.166-.664-.655-1.043-1.446zM124.05 722.29c.42-.023.997.204 1.618.759-.459.049-.96-.23-1.619-.758zM175.9 688.73c-.397 0-.988-.233-1.687-.78.426-.027.958.26 1.686.78zM181.9 692.712c-.393.032-.976-.164-1.673-.661.419-.057.95.188 1.672.66zM187.083 695.643c-.436.053-1.078-.142-1.853-.66.46-.079 1.053.166 1.853.66zM86.612 676.415c.343.152.802.6 1.253 1.4-.384-.132-.76-.618-1.253-1.4zM83.801 671.223c.323.19.717.699 1.117 1.546-.345-.183-.695-.707-1.117-1.546zM127.412 537.098c-.094-.477.1-1.162.615-2.046.104.48-.11 1.16-.615 2.046zM760.747 535.461c.345.151.744.6 1.12 1.384-.372-.14-.719-.612-1.12-1.384zM891.17 450.608c-.327-.164-.705-.626-1.078-1.413.346.155.686.635 1.077 1.413zM107.73 457.096c.016.405-.21.973-.757 1.598-.041-.44.237-.937.757-1.598zM683.52 457.314c.12-.395.546-.82 1.31-1.254-.11.402-.556.812-1.31 1.254zM893.277 454.516c-.348-.15-.75-.6-1.112-1.387.378.138.719.613 1.112 1.387zM688.323 453.01c-.064-.444.14-1.05.672-1.743.083.47-.16 1.026-.672 1.743zM908.646 378.88c-.163.31-.618.677-1.387 1.062.155-.324.626-.666 1.387-1.063zM780.634 380.803c-.161.315-.614.713-1.395 1.13.15-.337.626-.692 1.395-1.13zM946.144 384.615c-.31-.172-.679-.652-1.019-1.463.34.165.65.66 1.02 1.463zM860.18 395.603c-.331-.166-.707-.634-1.068-1.43.35.158.687.643 1.068 1.43zM892.221 452.57c-.338-.16-.725-.622-1.087-1.417.362.15.7.631 1.087 1.416zM883.653 393.891c-.168.31-.627.671-1.403 1.049.16-.322.635-.659 1.403-1.049zM892.44 444.223c.154-.335.604-.73 1.384-1.11-.142.36-.614.705-1.383 1.11zM861.231 397.563c-.341-.157-.731-.617-1.096-1.408.365.147.706.627 1.096 1.408zM715.698 424.083c.067.407-.105 1.003-.566 1.737-.083-.423.122-.985.566-1.737zM934.39 419.21c.16-.318.61-.715 1.391-1.121-.147.341-.623.691-1.391 1.12zM873.641 399.869c-.164.313-.62.683-1.394 1.067.155-.327.628-.669 1.394-1.067zM868.637 402.862c-.163.318-.621.689-1.398 1.072.155-.332.63-.676 1.398-1.072zM943.303 412.938c-.029-.427.197-1.003.751-1.621.053.462-.221.968-.751 1.621zM207.314 458.996c.2-.325.708-.618 1.527-.885-.199.323-.71.62-1.527.885zM699.65 506.872c-.166.315-.625.685-1.404 1.072.157-.328.633-.672 1.404-1.072zM731.672 487.927c-.176.304-.649.652-1.437 1.014.17-.314.655-.642 1.437-1.014zM672.12 360.653c-.32-.175-.679-.657-1.033-1.464.334.169.665.663 1.033 1.464zM671.124 358.65c-.32-.175-.68-.657-1.034-1.466.336.168.665.664 1.034 1.466zM908.17 481.611c-.334-.167-.703-.64-1.058-1.439.351.16.686.648 1.057 1.44zM673.117 362.654c-.318-.176-.676-.656-1.032-1.462.332.169.662.663 1.032 1.462zM898.23 463.557c-.338-.157-.728-.615-1.094-1.406.364.147.702.626 1.094 1.406zM897.176 461.605c-.328-.166-.705-.63-1.072-1.422.348.157.685.64 1.072 1.422zM717.869 459.355c.32.169.686.64 1.057 1.434-.334-.161-.672-.647-1.057-1.434zM204.425 460.296c.161-.35.64-.774 1.467-1.2-.15.373-.65.75-1.467 1.2zM670.129 356.649c-.321-.172-.684-.65-1.046-1.452.335.165.67.656 1.046 1.452zM896.122 459.64c-.318-.17-.683-.633-1.053-1.415.332.16.67.64 1.053 1.414z"/><path fill="#4A6BD6" d="M850.245 377.556c-.348-.157-.737-.62-1.093-1.418.373.148.712.63 1.093 1.418z"/><path fill="red" d="M947.062 385.672c-.22.066-.515-.131-.892-.59.218-.066.518.13.892.59zM888.628 390.928c.023.239-.283.549-.92.923-.024-.242.284-.547.92-.923zM859.095 393.645c-.227.056-.533-.165-.918-.665.227-.057.533.166.918.665zM127.844 725.434c.232-.077.559.115.97.59-.237.082-.555-.12-.97-.59zM569.717 320.388c.207-.066.58.127 1.07.622-.223.08-.564-.141-1.07-.622zM183.83 693.877c-.093.15-.355.18-.595.005.021-.204.427-.125.595-.005zM183.142 693.549c-.215.115-.542-.018-.987-.397.213-.114.545.017.987.397z"/><path fill="#4A6BD6" d="M849.193 375.613c-.166.026-.379-.168-.443-.478.15-.117.395.259.443.478z"/><path fill="red" d="M133.904 730.372c.205-.083.519.084.939.503-.206.083-.518-.086-.94-.503zM423.713 213.05c.21.037-.058.434-.058.434s-.428-.073-.499-.224c-.07-.152.347-.248.557-.21zM355.289 288.97c-.043-.254.199-.507.7-.824.035.233-.191.528-.7.824zM908.613 514.205c-.142-.224-.049-.567.308-1.014.152.228.04.561-.308 1.014zM906.524 517.206c-.113-.23.023-.57.434-.993.122.238-.03.561-.434.993zM905.61 518.266c-.117-.248.01-.59.432-.967.134.269-.027.571-.431.967zM904.642 519.29c-.115-.256.008-.597.43-.938.136.285-.028.57-.43.939zM903.607 520.294c-.105-.26.032-.598.47-.922.124.29-.052.568-.47.922zM343.286 294.942c-.034-.24.21-.488.71-.795.029.223-.202.505-.71.795zM761.832 537.373c.244-.047.534.166.788.662-.272.055-.507-.174-.788-.662zM341.231 296.132c-.047-.227.2-.543.737-.954.045.225-.2.544-.737.954zM681.724 556.372c.226-.106.594.057 1.098.499-.229.109-.592-.06-1.098-.499zM353.288 289.953c-.038-.246.204-.496.705-.806.03.226-.197.514-.705.806zM178.2 690.459c-.246.11-.584-.045-1.01-.481.248-.116.583.05 1.01.48zM562.891 315.243c.222-.095.533.097.978.532-.207.08-.548-.082-.978-.532zM357.284 288.004c-.063-.267.157-.524.628-.851.052.24-.147.55-.628.85zM689.502 451.21c-.133-.268.012-.608.436-1.033.134.264-.012.613-.436 1.033zM784.19 568.084c.081-.146.348-.177.616-.01.001.2-.43.124-.616.01zM890.074 448.632c-.235.017-.538-.285-.894-.916.241-.02.533.29.894.916zM894.352 443.09c-.059-.222.154-.528.64-.916.06.222-.155.528-.64.917zM897.366 441.313c-.03-.169.169-.415.497-.508.13.154-.268.43-.497.508zM567.855 319.358c.194-.1.528.05 1.007.44-.192.098-.529-.045-1.007-.44zM84.944 673.36c.235-.013.533.296.881.934-.239.016-.529-.297-.88-.933zM604.148 274.576c-.228.074-.554-.12-.965-.595.233-.079.55.124.965.595zM379.846 222.852c1.537.33 2.842.903 4.147 1.476l-1.142 1.799c-1.079-1.011-2.158-2.022-3.005-3.275zM832.6 627.523c-.561-.553-.826-1.24-1.091-1.926l1.712-.195c-.108.662-.217 1.325-.621 2.12zM340.008 711.42c46.343-.376 92.696-.384 139.515-.377-2.12 4.153-3.982 8.93-9.883 9.738-1.573.216-3.116 1.657-4.394 2.836-5.123 4.73-10.165 9.548-15.166 14.408-.873.849-1.248 2.208-2.116 3.066-2.712 2.68-5.353 5.495-8.39 7.767-3.747 2.803-7.96 4.977-11.794 7.675-3.642 2.563-4.339 6.409-3.782 11.025-47.687.438-95.373.442-143.527.444-.141-3.83.903-6.01 5.484-7.538 6.169-2.058 11.544-6.558 17.175-10.143 3.442-2.192 6.961-4.365 10.011-7.041 2.87-2.517 4.92-5.822 9.393-6.178.836-.067 1.413-3.393 2.34-5.814 4.303.129 8.302-1.18 9.483-6.67.154-.712 1.91-.994 2.793-1.65 2.07-1.54 4.456-2.878 5.996-4.856 2.736-3.515-2.078-3.47-2.965-5.347-.136-.287-.113-.65-.173-1.345zM574.058 711.405c30.288-.36 60.641-.373 91.462-.37 2.02 1.226 3.572 2.435 5.12 3.649-3.61 4.363-6.892 9.047-10.896 13-5.546 5.474-12.65 9.642-17.214 15.766-4.876 6.54-10.838 11.28-17.108 16.025-.857.649-1.433 2.327-1.337 3.46.386 4.542-2.082 5.128-5.826 5.116-29.44-.093-58.88-.05-88.788-.053-.77-1.448-1.617-3.05-1.258-4.306.721-2.529 1.708-6.63 3.276-6.978 6.216-1.382 7.503-6.313 9.777-10.837.931-1.854 2.365-3.737 4.062-4.868 4.173-2.78 8.257-5.327 11.822-9.173 5.255-5.67 11.928-10.009 17.715-15.226.67-.603-.45-3.191-.807-5.205z"/></svg>